<svg width="64" height="64" viewBox="0 0 64 64" fill="none" xmlns="http://www.w3.org/2000/svg">
<path d="M58.6667 22.6663C58.6667 32.2397 50.9067 39.9997 41.3333 39.9997C40.88 39.9997 40.4 39.973 39.9467 39.9464C39.28 31.493 32.5066 24.7196 24.0533 24.053C24.0266 23.5996 24 23.1197 24 22.6663C24 13.093 31.76 5.33301 41.3333 5.33301C50.9067 5.33301 58.6667 13.093 58.6667 22.6663Z" stroke="#221B96" stroke-width="3" stroke-linecap="round" stroke-linejoin="round"/>
<path d="M39.9997 41.3333C39.9997 50.9067 32.2397 58.6667 22.6663 58.6667C13.093 58.6667 5.33301 50.9067 5.33301 41.3333C5.33301 31.76 13.093 24 22.6663 24C23.1197 24 23.5996 24.0266 24.053 24.0533C32.5063 24.72 39.2797 31.4934 39.9464 39.9467C39.973 40.4 39.9997 40.88 39.9997 41.3333Z" stroke="#221B96" stroke-width="3" stroke-linecap="round" stroke-linejoin="round"/>
<path d="M14.9063 5.33301H7.99967C6.53301 5.33301 5.33301 6.53301 5.33301 7.99967V14.9063C5.33301 17.2797 8.21298 18.4796 9.89298 16.7996L16.7996 9.89298C18.453 8.21298 17.2797 5.33301 14.9063 5.33301Z" stroke="#FA8970" stroke-width="3" stroke-linecap="round" stroke-linejoin="round"/>
<path d="M49.0932 58.6667H55.9999C57.4666 58.6667 58.6666 57.4667 58.6666 56V49.0934C58.6666 46.72 55.7866 45.5201 54.1066 47.2001L47.1999 54.1067C45.5466 55.7867 46.7199 58.6667 49.0932 58.6667Z" stroke="#FA8970" stroke-width="3" stroke-linecap="round" stroke-linejoin="round"/>
</svg>
