<svg width="64" height="64" viewBox="0 0 64 64" fill="none" xmlns="http://www.w3.org/2000/svg">
<path d="M32 42.667V50.667" stroke="#FA8970" stroke-width="3" stroke-miterlimit="10" stroke-linecap="round" stroke-linejoin="round"/>
<path d="M47.9997 56H37.333" stroke="#FA8970" stroke-width="3" stroke-miterlimit="10" stroke-linecap="round" stroke-linejoin="round"/>
<path d="M26.6667 56H16" stroke="#FA8970" stroke-width="3" stroke-miterlimit="10" stroke-linecap="round" stroke-linejoin="round"/>
<path d="M32.0003 61.3337C34.9458 61.3337 37.3337 58.9458 37.3337 56.0003C37.3337 53.0548 34.9458 50.667 32.0003 50.667C29.0548 50.667 26.667 53.0548 26.667 56.0003C26.667 58.9458 29.0548 61.3337 32.0003 61.3337Z" stroke="#221B96" stroke-width="3" stroke-miterlimit="10" stroke-linecap="round" stroke-linejoin="round"/>
<path d="M16.9859 25.3598C6.10594 26.1331 6.13261 41.8931 16.9859 42.6664H42.7459C45.8659 42.6931 48.8793 41.5199 51.1993 39.4132C58.826 32.7465 54.746 19.4131 44.6926 18.1331C41.0926 -3.57358 9.65263 4.66648 17.0926 25.3598" stroke="#221B96" stroke-width="3" stroke-miterlimit="10" stroke-linecap="round" stroke-linejoin="round"/>
</svg>
