<svg width="64" height="64" viewBox="0 0 64 64" fill="none" xmlns="http://www.w3.org/2000/svg">
<path d="M53.3337 18.6663V45.333C53.3337 55.9997 50.667 58.6663 40.0003 58.6663H24.0003C13.3337 58.6663 10.667 55.9997 10.667 45.333V18.6663C10.667 7.99967 13.3337 5.33301 24.0003 5.33301H40.0003C50.667 5.33301 53.3337 7.99967 53.3337 18.6663Z" stroke="#221B96" stroke-width="3" stroke-linecap="round" stroke-linejoin="round"/>
<path d="M37.3337 14.666H26.667" stroke="#FA8970" stroke-width="3" stroke-linecap="round" stroke-linejoin="round"/>
<path d="M32.0005 50.9327C34.2833 50.9327 36.1339 49.0821 36.1339 46.7993C36.1339 44.5166 34.2833 42.666 32.0005 42.666C29.7177 42.666 27.8672 44.5166 27.8672 46.7993C27.8672 49.0821 29.7177 50.9327 32.0005 50.9327Z" stroke="#FA8970" stroke-width="3" stroke-linecap="round" stroke-linejoin="round"/>
</svg>
