<svg width="64" height="64" viewBox="0 0 64 64" fill="none" xmlns="http://www.w3.org/2000/svg">
<path d="M26.2921 50.6673L30.7721 46.8806C31.4388 46.3206 32.5588 46.3206 33.2521 46.8806L37.7054 50.6673C38.7454 51.2006 40.0254 50.6673 40.3987 49.5473L41.2521 46.9873C41.4654 46.374 41.2521 45.4673 40.7988 45.014L36.4254 40.614C36.1054 40.294 35.8654 39.6806 35.8654 39.254V34.3206C35.8654 33.2006 36.6921 32.6673 37.7321 33.094L46.6654 36.934C48.1321 37.574 49.3588 36.774 49.3588 35.174V32.694C49.3588 31.414 48.3988 29.9206 47.1988 29.414L36.6921 24.8806C36.2388 24.694 35.8921 24.134 35.8921 23.654V18.134C35.8921 16.3206 34.5587 14.1873 32.9587 13.3606C32.3721 13.0673 31.7054 13.0673 31.1188 13.3606C29.4921 14.1606 28.1854 16.3206 28.1854 18.134V23.654C28.1854 24.134 27.8121 24.694 27.3854 24.8806L16.8787 29.414C15.7054 29.9206 14.7188 31.414 14.7188 32.694V35.174C14.7188 36.774 15.9188 37.574 17.4121 36.934L26.3454 33.094C27.3588 32.6406 28.2121 33.2006 28.2121 34.3206V39.254C28.2121 39.7073 27.9454 40.3206 27.6521 40.614L23.1987 44.9873C22.7454 45.4406 22.5321 46.3473 22.7454 46.9606L23.5988 49.5206C23.9721 50.6673 25.2254 51.2006 26.2921 50.6673Z" stroke="#FA8970" stroke-width="3" stroke-linecap="round" stroke-linejoin="round"/>
<path d="M23.9997 58.6663H39.9997C53.333 58.6663 58.6663 53.333 58.6663 39.9997V23.9997C58.6663 10.6663 53.333 5.33301 39.9997 5.33301H23.9997C10.6663 5.33301 5.33301 10.6663 5.33301 23.9997V39.9997C5.33301 53.333 10.6663 58.6663 23.9997 58.6663Z" stroke="#221B96" stroke-width="3" stroke-linecap="round" stroke-linejoin="round"/>
</svg>
