<svg width="58" height="58" viewBox="0 0 58 58" fill="none" xmlns="http://www.w3.org/2000/svg">
<path d="M29.3862 26.2688C29.1445 26.2447 28.8545 26.2447 28.5887 26.2688C22.837 26.0755 18.2695 21.363 18.2695 15.563C18.2695 9.64217 23.0545 4.83301 28.9995 4.83301C34.9204 4.83301 39.7295 9.64217 39.7295 15.563C39.7054 21.363 35.1379 26.0755 29.3862 26.2688Z" fill="#82A6EC"/>
<path d="M17.3042 35.187C11.4559 39.102 11.4559 45.482 17.3042 49.3728C23.9501 53.8195 34.8492 53.8195 41.4951 49.3728C47.3434 45.4578 47.3434 39.0778 41.4951 35.187C34.8734 30.7645 23.9742 30.7645 17.3042 35.187Z" fill="#82A6EC"/>
</svg>
