<svg width="15" height="15" viewBox="0 0 15 15" fill="none" xmlns="http://www.w3.org/2000/svg">
<path d="M7.3319 1.33276L5.00103 3.66362L1.28872 13.7399L11.365 10.0276L13.6961 7.69652" stroke="#69678F" stroke-width="1.5" stroke-linecap="round" stroke-linejoin="round"/>
<path d="M9.24333 5.78792C8.82138 6.20987 8.24908 6.44693 7.65234 6.44693C7.05561 6.44693 6.48331 6.20987 6.06135 5.78792C5.6394 5.36596 5.40234 4.79366 5.40234 4.19693C5.40234 3.60019 5.6394 3.02789 6.06135 2.60594" stroke="#69678F" stroke-width="1.5" stroke-linecap="round" stroke-linejoin="round"/>
<path d="M11.3624 3.66821L9.24104 5.78953C8.81908 6.21149 8.58203 6.78378 8.58203 7.38052C8.58203 7.97726 8.81908 8.54955 9.24104 8.97151C9.663 9.39347 10.2353 9.63052 10.832 9.63052C11.4288 9.63052 12.0011 9.39347 12.423 8.97151" stroke="#69678F" stroke-width="1.5" stroke-linecap="round" stroke-linejoin="round"/>
<path d="M6.71484 11.7422L3.2881 8.31544" stroke="#69678F" stroke-width="1.5" stroke-linecap="round" stroke-linejoin="round"/>
</svg>
