<svg width="198" height="63" viewBox="0 0 198 63" fill="none" xmlns="http://www.w3.org/2000/svg">
<path d="M70.8034 52.6723C72.2534 52.9269 72.9854 53.4871 72.9854 54.3528C72.9854 54.913 72.7782 55.3586 72.3639 55.6769C71.9496 56.0079 71.3558 56.1607 70.5962 56.1607C70.0162 56.1607 69.4915 56.0716 69.0081 55.8933C68.5248 55.7151 68.1933 55.5496 68 55.3713L68.4695 54.2892C68.7043 54.5056 69.0219 54.6838 69.4224 54.8239C69.8229 54.9639 70.1958 55.0403 70.541 55.053C70.9139 55.0658 71.2177 55.0021 71.4386 54.8875C71.6596 54.773 71.7701 54.6329 71.7701 54.4674C71.7701 54.2764 71.6734 54.1236 71.4801 54.0218C71.2867 53.9199 70.9967 53.8308 70.5962 53.7672C69.671 53.6144 69.0357 53.4107 68.6905 53.1433C68.3452 52.876 68.1795 52.5067 68.1795 52.0484C68.1795 51.5773 68.4005 51.2081 68.8424 50.9153C69.2843 50.6225 69.8781 50.4824 70.5962 50.4824C71.3282 50.4824 72.0601 50.6607 72.7644 51.0044L72.3501 52.0357C72.1982 51.9338 71.9496 51.832 71.6044 51.7301C71.2729 51.6283 70.9277 51.5773 70.5962 51.5773C70.251 51.5646 69.961 51.6028 69.7262 51.6792C69.4915 51.7556 69.3672 51.8829 69.3672 52.0611C69.3672 52.1503 69.3948 52.2266 69.4638 52.303C69.5329 52.3667 69.6158 52.4176 69.7538 52.4685C69.8781 52.5067 70.0024 52.5449 70.1267 52.5704C70.2372 52.5959 70.3891 52.6213 70.5824 52.6595C70.6929 52.6595 70.762 52.6723 70.8034 52.6723Z" fill="#BDCBFB"/>
<path d="M74.7658 54.2639V51.6667H73.9648V50.559H74.7658V48.3564H75.9535V50.559H77.1549V51.6667H75.9535V53.9583C75.9535 54.4803 76.0363 54.7986 76.1882 54.9132C76.423 55.0787 76.7544 55.0787 77.1411 54.8877V55.9954C76.9063 56.0972 76.6025 56.1609 76.2573 56.1609C75.2768 56.1609 74.7658 55.537 74.7658 54.2639Z" fill="#BDCBFB"/>
<path d="M83.3309 50.5715H84.5186V56.0716H83.3309V55.2695C82.8338 55.8679 82.1709 56.1607 81.3423 56.1607C80.4861 56.1607 79.768 55.8806 79.2018 55.3331C78.6356 54.7857 78.3594 54.1109 78.3594 53.3216C78.3594 52.5322 78.6356 51.8574 79.2018 51.31C79.768 50.7625 80.4861 50.4824 81.3423 50.4824C82.1709 50.4824 82.8338 50.7752 83.3309 51.3736V50.5715ZM80.0994 54.5438C80.4723 54.8875 80.9142 55.053 81.439 55.053C81.9637 55.053 82.4057 54.8875 82.7785 54.5438C83.1514 54.2 83.3309 53.7926 83.3309 53.3088C83.3309 52.825 83.1514 52.4176 82.7785 52.0739C82.4057 51.7301 81.9637 51.5646 81.439 51.5646C80.9142 51.5646 80.4723 51.7301 80.0994 52.0739C79.7265 52.4176 79.547 52.825 79.547 53.3088C79.547 53.8054 79.7404 54.2128 80.0994 54.5438Z" fill="#BDCBFB"/>
<path d="M87.4035 51.7429C87.6106 51.3482 87.9282 51.0299 88.3425 50.8135C88.7568 50.5843 89.2402 50.4697 89.7926 50.4697V51.6792C89.4473 51.5774 89.0745 51.5901 88.7016 51.7301C87.8454 52.0357 87.4035 52.6595 87.4035 53.6144V56.0716H86.2158V50.5716H87.4035V51.7429Z" fill="#BDCBFB"/>
<path d="M91.6856 54.2639V51.6667H90.8984V50.559H91.6994V48.3564H92.887V50.559H94.0747V51.6667H92.887V53.9583C92.887 54.4803 92.9699 54.7986 93.1218 54.9132C93.3566 55.0787 93.688 55.0787 94.0747 54.8877V55.9954C93.8399 56.0972 93.5361 56.1609 93.1909 56.1609C92.1827 56.1609 91.6856 55.537 91.6856 54.2639Z" fill="#BDCBFB"/>
<path d="M97.7732 56.1605C97.0551 56.1605 96.4889 55.9568 96.0746 55.5367C95.6603 55.1293 95.4531 54.5181 95.4531 53.7288V50.5586H96.6408V53.6269C96.6408 54.098 96.7374 54.4418 96.9446 54.6837C97.1517 54.9256 97.497 55.0401 97.9803 55.0401C98.3808 55.0401 98.7537 54.9001 99.0989 54.6327C99.4442 54.3654 99.6237 54.0089 99.6237 53.576V50.5459H100.839V56.0459H99.6513V55.4094C99.1818 55.9186 98.5603 56.1605 97.7732 56.1605Z" fill="#BDCBFB"/>
<path d="M105.714 50.4697C106.584 50.4697 107.289 50.7498 107.855 51.2973C108.421 51.8447 108.697 52.5195 108.697 53.3089C108.697 54.0982 108.421 54.773 107.855 55.3205C107.289 55.8679 106.584 56.148 105.714 56.148C104.886 56.148 104.223 55.8552 103.726 55.2568V58.9999H102.538V50.5588H103.726V51.3609C104.223 50.7753 104.886 50.4697 105.714 50.4697ZM104.278 54.5438C104.651 54.8876 105.093 55.0531 105.618 55.0531C106.142 55.0531 106.584 54.8876 106.957 54.5438C107.33 54.2001 107.51 53.7927 107.51 53.3089C107.51 52.8251 107.33 52.4177 106.957 52.0739C106.584 51.7302 106.142 51.5646 105.618 51.5646C105.093 51.5646 104.651 51.7302 104.278 52.0739C103.905 52.4177 103.726 52.8251 103.726 53.3089C103.726 53.8054 103.905 54.2128 104.278 54.5438Z" fill="#BDCBFB"/>
<path d="M116.557 48H117.745V56.0718H116.557V55.2697C116.06 55.8681 115.397 56.1609 114.569 56.1609C113.713 56.1609 112.995 55.8808 112.428 55.3334C111.862 54.7859 111.586 54.1112 111.586 53.3218C111.586 52.5324 111.862 51.8577 112.428 51.3102C112.995 50.7628 113.713 50.4827 114.569 50.4827C115.397 50.4827 116.06 50.7755 116.557 51.3739V48ZM113.326 54.544C113.699 54.8878 114.141 55.0533 114.666 55.0533C115.19 55.0533 115.632 54.8878 116.005 54.544C116.378 54.2003 116.557 53.7929 116.557 53.3091C116.557 52.8253 116.378 52.4179 116.005 52.0741C115.632 51.7304 115.19 51.5648 114.666 51.5648C114.141 51.5648 113.699 51.7304 113.326 52.0741C112.953 52.4179 112.774 52.8253 112.774 53.3091C112.774 53.8056 112.967 54.213 113.326 54.544Z" fill="#BDCBFB"/>
<path d="M124.717 53.347C124.717 53.5125 124.703 53.678 124.675 53.8308H120.16C120.256 54.2382 120.477 54.5565 120.822 54.7602C121.168 54.9639 121.596 55.0658 122.093 55.0658C122.742 55.0658 123.35 54.8875 123.902 54.5183L124.316 55.4987C123.75 55.9443 123.004 56.1607 122.079 56.1607C121.071 56.1607 120.298 55.8933 119.759 55.3586C119.221 54.8239 118.944 54.1364 118.944 53.3216C118.944 52.5067 119.221 51.832 119.759 51.2972C120.298 50.7498 121.016 50.4824 121.913 50.4824C122.728 50.4824 123.391 50.7371 123.916 51.259C124.454 51.7683 124.717 52.4685 124.717 53.347ZM120.16 52.8123H123.488C123.474 52.494 123.322 52.2139 123.06 51.9593C122.783 51.7047 122.383 51.5773 121.858 51.5773C121.347 51.5773 120.947 51.7047 120.643 51.972C120.339 52.2266 120.173 52.5067 120.16 52.8123Z" fill="#BDCBFB"/>
<path d="M127.991 56.2505L125.104 50.5723H126.403L127.991 53.7806L129.593 50.5723H130.877L127.991 56.2505Z" fill="#BDCBFB"/>
<path d="M137.048 53.347C137.048 53.5125 137.034 53.678 137.007 53.8308H132.491C132.587 54.2382 132.808 54.5565 133.154 54.7602C133.499 54.9639 133.927 55.0658 134.424 55.0658C135.073 55.0658 135.681 54.8875 136.233 54.5183L136.634 55.4987C136.068 55.9443 135.322 56.1607 134.397 56.1607C133.388 56.1607 132.615 55.8933 132.077 55.3586C131.538 54.8239 131.262 54.1364 131.262 53.3216C131.262 52.5067 131.538 51.832 132.077 51.2972C132.615 50.7498 133.333 50.4824 134.231 50.4824C135.046 50.4824 135.708 50.7371 136.233 51.259C136.786 51.7683 137.048 52.4685 137.048 53.347ZM132.491 52.8123H135.819C135.805 52.494 135.653 52.2139 135.391 51.9593C135.115 51.7047 134.714 51.5773 134.189 51.5773C133.678 51.5773 133.278 51.7047 132.974 51.972C132.67 52.2266 132.518 52.5067 132.491 52.8123Z" fill="#BDCBFB"/>
<path d="M139.425 48H138.237V56.0718H139.425V48Z" fill="#BDCBFB"/>
<path d="M141.539 51.31C142.133 50.7498 142.864 50.4824 143.721 50.4824C144.577 50.4824 145.295 50.7625 145.903 51.31C146.51 51.8702 146.8 52.5322 146.8 53.3216C146.8 54.1109 146.496 54.773 145.903 55.3331C145.295 55.8806 144.577 56.1607 143.721 56.1607C142.864 56.1607 142.146 55.8806 141.539 55.3331C140.931 54.773 140.641 54.1109 140.641 53.3216C140.627 52.5322 140.931 51.8574 141.539 51.31ZM142.381 54.5438C142.754 54.8875 143.196 55.0658 143.707 55.0658C144.218 55.0658 144.66 54.8875 145.033 54.5438C145.405 54.2 145.599 53.7926 145.599 53.3216C145.599 52.8505 145.405 52.4431 145.033 52.0993C144.66 51.7556 144.218 51.5773 143.707 51.5773C143.196 51.5773 142.754 51.7556 142.381 52.0993C142.008 52.4431 141.815 52.8505 141.815 53.3216C141.829 53.7926 142.008 54.2 142.381 54.5438Z" fill="#BDCBFB"/>
<path d="M151.176 50.4697C152.046 50.4697 152.751 50.7498 153.317 51.2973C153.883 51.8447 154.159 52.5195 154.159 53.3089C154.159 54.0982 153.883 54.773 153.317 55.3205C152.751 55.8679 152.046 56.148 151.176 56.148C150.348 56.148 149.685 55.8552 149.188 55.2568V58.9999H148V50.5588H149.188V51.3609C149.685 50.7753 150.348 50.4697 151.176 50.4697ZM149.74 54.5438C150.113 54.8876 150.555 55.0531 151.08 55.0531C151.604 55.0531 152.046 54.8876 152.419 54.5438C152.792 54.2001 152.972 53.7927 152.972 53.3089C152.972 52.8251 152.792 52.4177 152.419 52.0739C152.046 51.7302 151.604 51.5646 151.08 51.5646C150.555 51.5646 150.113 51.7302 149.74 52.0739C149.367 52.4177 149.188 52.8251 149.188 53.3089C149.188 53.8054 149.367 54.2128 149.74 54.5438Z" fill="#BDCBFB"/>
<path d="M162.1 50.4697C162.762 50.4697 163.287 50.6862 163.66 51.119C164.033 51.5519 164.226 52.1758 164.226 52.9906V56.0589H163.025V52.9906C163.025 52.0484 162.638 51.5646 161.879 51.5646C161.492 51.5646 161.16 51.7047 160.87 51.972C160.58 52.2394 160.442 52.5959 160.442 53.0415V56.0716H159.241V53.0033C159.241 52.0612 158.854 51.5774 158.095 51.5774C157.708 51.5774 157.377 51.7174 157.087 51.9848C156.797 52.2521 156.645 52.6086 156.645 53.0542V56.0843H155.457V50.5843H156.645V51.2209C156.797 51.0681 156.921 50.9535 157.031 50.8644C157.142 50.7753 157.308 50.6862 157.528 50.6098C157.749 50.5334 158.012 50.4952 158.302 50.4952C159.075 50.4952 159.655 50.788 160.014 51.3609C160.332 51.0426 160.65 50.8262 160.967 50.6862C161.299 50.5461 161.671 50.4697 162.1 50.4697Z" fill="#BDCBFB"/>
<path d="M171.173 53.347C171.173 53.5125 171.159 53.678 171.132 53.8308H166.616C166.712 54.2382 166.933 54.5565 167.279 54.7602C167.624 54.9639 168.052 55.0658 168.549 55.0658C169.198 55.0658 169.806 54.8875 170.358 54.5183L170.759 55.4987C170.193 55.9443 169.447 56.1607 168.522 56.1607C167.513 56.1607 166.74 55.8933 166.202 55.3586C165.663 54.8239 165.387 54.1364 165.387 53.3216C165.387 52.5067 165.663 51.832 166.202 51.2972C166.74 50.7498 167.458 50.4824 168.356 50.4824C169.171 50.4824 169.833 50.7371 170.358 51.259C170.911 51.7683 171.173 52.4685 171.173 53.347ZM166.616 52.8123H169.944C169.93 52.494 169.778 52.2139 169.516 51.9593C169.24 51.7047 168.839 51.5773 168.314 51.5773C167.803 51.5773 167.403 51.7047 167.099 51.972C166.795 52.2266 166.643 52.5067 166.616 52.8123Z" fill="#BDCBFB"/>
<path d="M175.427 50.4697C176.145 50.4697 176.711 50.6734 177.126 51.0936C177.54 51.501 177.733 52.1121 177.733 52.9014V56.0716H176.546V53.0033C176.546 52.5322 176.449 52.1885 176.242 51.9466C176.035 51.7047 175.689 51.5901 175.206 51.5901C174.806 51.5901 174.433 51.7301 174.087 51.9975C173.742 52.2649 173.563 52.6214 173.563 53.0542V56.0843H172.375V50.5843H173.563V51.2209C174.032 50.7244 174.654 50.4697 175.427 50.4697Z" fill="#BDCBFB"/>
<path d="M179.624 54.2639V51.6667H178.823V50.559H179.624V48.3564H180.812V50.559H182V51.6667H180.812V53.9583C180.812 54.4803 180.895 54.7986 181.047 54.9132C181.281 55.0787 181.613 55.0787 182 54.8877V55.9954C181.765 56.0972 181.461 56.1609 181.116 56.1609C180.135 56.1609 179.624 55.537 179.624 54.2639Z" fill="#BDCBFB"/>
<path d="M61.4647 19.9365H65.3085V31.457C65.3085 34.1757 64.5809 36.3727 63.1395 38.0616C61.6844 39.7368 59.6939 40.5882 57.1542 40.5882C54.5734 40.5882 52.5692 39.7506 51.1415 38.0616C49.7138 36.3864 49 34.1757 49 31.457V19.9365H52.8438V31.9375C52.8438 33.3519 53.2556 34.519 54.093 35.3978C54.9166 36.2903 55.9462 36.7297 57.168 36.7297C58.3897 36.7297 59.4193 36.2903 60.243 35.3978C61.0666 34.5053 61.4922 33.3519 61.4922 31.9375V19.9365H61.4647Z" fill="white"/>
<path d="M77.0576 24.7422C79.1168 24.7422 80.8739 25.5249 82.3153 27.0628C83.7704 28.6144 84.4843 30.4818 84.4843 32.6513C84.4843 34.8346 83.7567 36.702 82.3153 38.2536C80.8602 39.8053 79.1168 40.5742 77.0576 40.5742C75.2181 40.5742 73.6943 39.8876 72.5 38.5008V47.0004H68.6562V25.2228H72.5V26.8156C73.708 25.4287 75.2181 24.7422 77.0576 24.7422ZM73.708 35.5349C74.5042 36.3313 75.4652 36.7295 76.5909 36.7295C77.7165 36.7295 78.6775 36.3313 79.4737 35.5349C80.2699 34.7385 80.668 33.7773 80.668 32.6513C80.668 31.5254 80.2699 30.5779 79.4737 29.7678C78.6775 28.9714 77.7165 28.5732 76.5909 28.5732C75.4652 28.5732 74.5042 28.9714 73.708 29.7678C72.9118 30.5642 72.5137 31.5254 72.5137 32.6513C72.5 33.7773 72.8981 34.7385 73.708 35.5349Z" fill="white"/>
<path d="M93.8603 24.7416C95.6998 24.7416 97.2236 25.4282 98.4179 26.815V18.9883H102.262V40.1068H98.4179V38.514C97.2236 39.9008 95.6998 40.5874 93.8603 40.5874C91.8011 40.5874 90.044 39.8184 88.6026 38.2668C87.1474 36.7152 86.4336 34.8478 86.4336 32.6645C86.4336 30.4813 87.1612 28.6275 88.6026 27.0759C90.044 25.5106 91.8011 24.7416 93.8603 24.7416ZM91.4579 35.5343C92.2541 36.3307 93.2151 36.7289 94.3407 36.7289C95.4664 36.7289 96.4136 36.3307 97.2236 35.5343C98.0198 34.7379 98.4179 33.7767 98.4179 32.6508C98.4179 31.5248 98.0198 30.5774 97.2236 29.7672C96.4273 28.9708 95.4664 28.5726 94.3407 28.5726C93.2151 28.5726 92.2541 28.9708 91.4579 29.7672C90.6617 30.5636 90.2636 31.5248 90.2636 32.6508C90.2636 33.7767 90.6617 34.7379 91.4579 35.5343Z" fill="white"/>
<path d="M119.531 32.6651C119.531 32.9397 119.504 33.3517 119.476 33.8597H108.645C108.92 34.8758 109.441 35.6997 110.196 36.3039C110.951 36.908 111.899 37.2239 113.065 37.2239C114.726 37.2239 116.209 36.757 117.499 35.8507L118.611 39.1737C118.447 39.2698 118.227 39.4071 117.939 39.5582C117.65 39.7229 117.019 39.9289 116.044 40.1898C115.07 40.4507 114.054 40.5743 112.997 40.5743C110.238 40.5743 108.151 39.8328 106.764 38.3498C105.364 36.8669 104.664 34.972 104.664 32.6514C104.664 30.3308 105.323 28.4359 106.641 26.953C107.959 25.47 109.867 24.7285 112.338 24.7285C114.658 24.7285 116.442 25.4288 117.678 26.8157C118.913 28.2162 119.531 30.1661 119.531 32.6651ZM108.741 30.9762H115.454C115.454 30.2622 115.152 29.6031 114.562 28.9989C113.971 28.3947 113.148 28.0926 112.091 28.0926C111.198 28.0926 110.402 28.4085 109.743 29.0401C109.071 29.6717 108.741 30.3171 108.741 30.9762Z" fill="white"/>
<path d="M126.259 40.0935L120.013 25.2227H124.337L127.7 34.3401L131.05 25.2227H135.374L129.128 40.0935H126.259Z" fill="white"/>
<path d="M140.85 22.5313C140.343 23.0393 139.711 23.3002 138.97 23.3002C138.228 23.3002 137.611 23.0393 137.089 22.5313C136.581 22.0232 136.32 21.3916 136.32 20.6501C136.32 19.9086 136.581 19.2907 137.089 18.7689C137.597 18.2609 138.228 18 138.97 18C139.711 18 140.329 18.2609 140.85 18.7689C141.358 19.277 141.619 19.9086 141.619 20.6501C141.605 21.3916 141.358 22.0232 140.85 22.5313ZM137.048 25.2226H140.892V40.1072H137.048V25.2226Z" fill="white"/>
<path d="M150.997 30.6191C153.29 30.9761 154.868 31.5666 155.706 32.3904C156.543 33.2143 156.969 34.1755 156.969 35.3014C156.969 36.8668 156.378 38.1301 155.212 39.105C154.045 40.0799 152.452 40.5742 150.421 40.5742C148.856 40.5742 147.455 40.3271 146.206 39.8602C144.957 39.3796 144.065 38.899 143.516 38.4184L144.779 34.8209C145.424 35.425 146.234 35.9193 147.222 36.3038C148.21 36.6883 149.158 36.8943 150.064 36.9217C152.109 36.9629 153.125 36.5373 153.125 35.631C153.125 35.3152 152.933 35.068 152.576 34.917C152.205 34.7522 151.505 34.5874 150.489 34.4089C149.144 34.1892 148.032 33.9146 147.14 33.5851C146.247 33.2555 145.589 32.871 145.149 32.4179C144.71 31.9648 144.408 31.4979 144.257 31.0173C144.092 30.5367 144.01 29.9738 144.01 29.3009C144.01 28.0651 144.614 26.9941 145.836 26.0878C147.057 25.1953 148.609 24.7422 150.517 24.7422C152.521 24.7422 154.443 25.2228 156.31 26.184L155.225 29.6579C154.8 29.3559 154.141 29.0812 153.249 28.8203C152.356 28.5594 151.436 28.4221 150.517 28.3947C148.732 28.3535 147.854 28.6556 147.854 29.3009C147.854 29.7953 148.458 30.166 149.652 30.3857C149.83 30.4269 150.119 30.4818 150.517 30.5367L150.997 30.6191Z" fill="white"/>
<path d="M163.406 22.5313C162.898 23.0393 162.267 23.3002 161.525 23.3002C160.784 23.3002 160.166 23.0393 159.658 22.5313C159.15 22.0232 158.89 21.3916 158.89 20.6501C158.89 19.9086 159.15 19.2907 159.658 18.7689C160.166 18.2609 160.798 18 161.525 18C162.267 18 162.898 18.2609 163.406 18.7689C163.914 19.277 164.175 19.9086 164.175 20.6501C164.161 21.3916 163.914 22.0232 163.406 22.5313ZM159.603 25.2226H163.447V40.1072H159.603V25.2226Z" fill="white"/>
<path d="M168.158 27.049C169.695 25.5111 171.562 24.7422 173.772 24.7422C175.969 24.7422 177.836 25.5111 179.373 27.049C180.911 28.5869 181.68 30.4543 181.68 32.6651C181.68 34.862 180.911 36.7295 179.373 38.2811C177.836 39.819 175.969 40.5879 173.772 40.5879C171.576 40.5879 169.709 39.819 168.158 38.2811C166.62 36.7432 165.852 34.8758 165.852 32.6651C165.852 30.4543 166.62 28.5869 168.158 27.049ZM170.89 35.5349C171.686 36.3313 172.647 36.7295 173.772 36.7295C174.898 36.7295 175.845 36.3313 176.655 35.5349C177.451 34.7385 177.85 33.7773 177.85 32.6513C177.85 31.5254 177.451 30.5779 176.655 29.7678C175.859 28.9714 174.898 28.5732 173.772 28.5732C172.647 28.5732 171.686 28.9714 170.89 29.7678C170.093 30.5642 169.695 31.5254 169.695 32.6513C169.682 33.7773 170.093 34.7385 170.89 35.5349Z" fill="white"/>
<path d="M192.425 24.7422C194.168 24.7422 195.527 25.3189 196.515 26.4586C197.504 27.5983 197.998 29.2735 197.998 31.4704V40.1073H194.154V31.951C194.154 30.7976 193.921 29.9463 193.468 29.397C193.015 28.8615 192.274 28.5869 191.285 28.5869C190.324 28.5869 189.528 28.9027 188.883 29.5481C188.238 30.1935 187.922 31.1546 187.922 32.4316V40.1073H184.078V25.2228H187.922V26.6645C189.006 25.3738 190.503 24.7422 192.425 24.7422Z" fill="white"/>
<path fill-rule="evenodd" clip-rule="evenodd" d="M0 11.9306L16.5069 0L33 11.9306V26L16.5069 14.0556L0 26V11.9306ZM21.755 30H32.9861H33V46.5C33 55.6097 25.6097 63 16.5 63C7.39034 63 0 55.6097 0 46.5V30H11.245V30.8597V46.4861C11.245 49.384 13.5882 51.7412 16.5 51.7412C19.3979 51.7412 21.755 49.384 21.755 46.4861V30.8597V30Z" fill="white"/>
</svg>
