<svg width="28" height="28" viewBox="0 0 28 28" fill="none" xmlns="http://www.w3.org/2000/svg">
<path d="M10.2878 20.187C9.05034 23.8993 4.10059 23.8993 4.10059 23.8993C4.10059 23.8993 4.10059 18.9496 7.8129 17.7122" stroke="#221B96" stroke-width="2" stroke-linecap="round" stroke-linejoin="round"/>
<path d="M21.4244 11.525L13.9998 18.9496L9.05005 13.9998L16.4747 6.57521C19.2861 3.76382 22.0975 3.79124 23.2964 3.97013C23.481 3.99765 23.6519 4.08374 23.7839 4.21572C23.9159 4.3477 24.002 4.51858 24.0295 4.70319C24.2084 5.90217 24.2358 8.71356 21.4244 11.525Z" stroke="#221B96" stroke-width="2" stroke-linecap="round" stroke-linejoin="round"/>
<path d="M20.1872 12.7626V19.8248C20.1872 19.9397 20.1646 20.0534 20.1206 20.1596C20.0766 20.2658 20.0122 20.3622 19.9309 20.4435L16.3935 23.9808C16.2815 24.0928 16.1413 24.1723 15.9876 24.2109C15.834 24.2494 15.6728 24.2455 15.5212 24.1996C15.3697 24.1537 15.2334 24.0675 15.1269 23.9503C15.0205 23.833 14.9479 23.689 14.9168 23.5337L14 18.9498" stroke="#221B96" stroke-width="2" stroke-linecap="round" stroke-linejoin="round"/>
<path d="M15.2373 7.81274H8.17508C8.06017 7.81274 7.94639 7.83538 7.84023 7.87935C7.73407 7.92332 7.63761 7.98777 7.55636 8.06903L4.01898 11.6064C3.90699 11.7184 3.8275 11.8587 3.78897 12.0123C3.75045 12.1659 3.75435 12.3271 3.80024 12.4787C3.84613 12.6303 3.93231 12.7665 4.04957 12.873C4.16684 12.9794 4.3108 13.0521 4.46609 13.0831L9.05008 13.9999" stroke="#221B96" stroke-width="2" stroke-linecap="round" stroke-linejoin="round"/>
</svg>
