<svg width="28" height="28" viewBox="0 0 28 28" fill="none" xmlns="http://www.w3.org/2000/svg">
<path d="M4.96877 19.3621C3.66422 17.1629 3.20735 14.5632 3.68396 12.051C4.16057 9.53882 5.53788 7.28704 7.55725 5.71849C9.57661 4.14994 12.0991 3.37252 14.6511 3.53222C17.2031 3.69192 19.609 4.77774 21.4171 6.5858C23.2252 8.39386 24.311 10.7998 24.4707 13.3518C24.6304 15.9038 23.853 18.4263 22.2845 20.4457C20.716 22.465 18.4642 23.8424 15.952 24.319C13.4398 24.7956 10.8401 24.3388 8.6409 23.0342L8.64093 23.0341L5.01443 24.0702C4.86439 24.1131 4.70561 24.1151 4.55456 24.0759C4.4035 24.0368 4.26566 23.958 4.15532 23.8476C4.04498 23.7373 3.96616 23.5995 3.92701 23.4484C3.88787 23.2973 3.88984 23.1386 3.93271 22.9885L4.96885 19.362L4.96877 19.3621Z" stroke="#221B96" stroke-width="2" stroke-linecap="round" stroke-linejoin="round"/>
<path d="M10.5 12.25H17.5" stroke="#221B96" stroke-width="2" stroke-linecap="round" stroke-linejoin="round"/>
<path d="M10.5 15.75H17.5" stroke="#221B96" stroke-width="2" stroke-linecap="round" stroke-linejoin="round"/>
</svg>
