<svg width="28" height="28" viewBox="0 0 28 28" fill="none" xmlns="http://www.w3.org/2000/svg">
<path fill-rule="evenodd" clip-rule="evenodd" d="M25.351 3.87004C25.6767 4.21846 25.7575 4.73004 25.5551 5.16188L16.8051 23.8286C16.6263 24.2099 16.2559 24.4653 15.8359 24.4968C15.4159 24.5283 15.0116 24.331 14.778 23.9805L12.6062 20.7228L9.32753 22.5963C8.96644 22.8027 8.52282 22.8012 8.16312 22.5924C7.80342 22.3837 7.58203 21.9993 7.58203 21.5834V15.9249L3.02487 13.8995C2.59439 13.7082 2.32121 13.2767 2.33236 12.8058C2.34351 12.3348 2.63679 11.9168 3.07585 11.746L24.0758 3.57937C24.5204 3.40651 25.0253 3.52161 25.351 3.87004ZM9.91537 17.0544L10.2832 17.2383L11.3088 18.7768L9.91537 19.573V17.0544ZM12.6221 16.5402L15.571 20.9636L21.1003 9.16793L12.6221 16.5402ZM18.6781 8.18207L6.53288 12.9052L9.22253 14.1006C9.23867 14.1078 9.25465 14.1153 9.27045 14.1232L10.9056 14.9408L18.6781 8.18207Z" fill="white"/>
</svg>
