<svg width="42" height="42" viewBox="0 0 42 42" fill="none" xmlns="http://www.w3.org/2000/svg">
<path d="M36.75 12.249V29.749C36.75 34.999 34.125 38.499 28 38.499H14C7.875 38.499 5.25 34.999 5.25 29.749V12.249C5.25 6.99902 7.875 3.49902 14 3.49902H28C34.125 3.49902 36.75 6.99902 36.75 12.249Z" stroke="#221B96" stroke-width="2" stroke-miterlimit="10" stroke-linecap="round" stroke-linejoin="round"/>
<path d="M27.1259 3.49902V17.254C27.1259 18.024 26.2158 18.409 25.6558 17.9015L21.5959 14.1566C21.2634 13.8416 20.7383 13.8416 20.4058 14.1566L16.3459 17.9015C15.7859 18.409 14.8759 18.024 14.8759 17.254V3.49902H27.1259Z" stroke="#FA8970" stroke-width="2" stroke-miterlimit="10" stroke-linecap="round" stroke-linejoin="round"/>
<path d="M23.1866 24.499H30.6241" stroke="#FA8970" stroke-width="2" stroke-miterlimit="10" stroke-linecap="round" stroke-linejoin="round"/>
<path d="M15.75 31.5H30.625" stroke="#FA8970" stroke-width="2" stroke-miterlimit="10" stroke-linecap="round" stroke-linejoin="round"/>
</svg>
