<svg width="42" height="42" viewBox="0 0 42 42" fill="none" xmlns="http://www.w3.org/2000/svg">
<path d="M20.072 10.5H28.822" stroke="#FA8970" stroke-width="2" stroke-linecap="round"/>
<path d="M20.072 31.5H27.072" stroke="#FA8970" stroke-width="2" stroke-linecap="round"/>
<path d="M20.072 24.4121L28.822 24.4996" stroke="#FA8970" stroke-width="2" stroke-linecap="round"/>
<path d="M20.072 17.501H25.322" stroke="#FA8970" stroke-width="2" stroke-linecap="round"/>
<path d="M14.7722 12.251H4.42969" stroke="#FA8970" stroke-width="2" stroke-linecap="round"/>
<path d="M37.572 33.249V8.74902C37.572 5.24902 35.822 3.49902 32.322 3.49902H25.322C21.822 3.49902 20.072 5.24902 20.072 8.74902V33.249C20.072 36.749 21.822 38.499 25.322 38.499H32.322C35.822 38.499 37.572 36.749 37.572 33.249Z" stroke="#221B96" stroke-width="2" stroke-linecap="round"/>
<path d="M9.60969 3.49902C6.75719 3.49902 4.42969 5.82652 4.42969 8.66152V31.3415C4.42969 32.129 4.76219 33.319 5.16469 34.0015L6.59969 36.3815C8.24469 39.129 10.9572 39.129 12.6022 36.3815L14.0372 34.0015C14.4397 33.319 14.7722 32.129 14.7722 31.3415V8.66152C14.7722 5.82652 12.4447 3.49902 9.60969 3.49902Z" stroke="#221B96" stroke-width="2" stroke-linecap="round"/>
</svg>
