<svg width="42" height="42" viewBox="0 0 42 42" fill="none" xmlns="http://www.w3.org/2000/svg">
<path d="M31.4967 12.529C31.3917 12.5115 31.2692 12.5115 31.1642 12.529C28.7492 12.4415 26.8242 10.464 26.8242 8.01403C26.8242 5.51153 28.8367 3.49902 31.3392 3.49902C33.8417 3.49902 35.8542 5.52903 35.8542 8.01403C35.8367 10.464 33.9117 12.4415 31.4967 12.529Z" stroke="#221B96" stroke-width="2" stroke-linecap="round" stroke-linejoin="round"/>
<path d="M29.694 25.2693C32.0915 25.6718 34.734 25.2518 36.589 24.0093C39.0565 22.3643 39.0565 19.6693 36.589 18.0243C34.7165 16.7818 32.039 16.3618 29.6415 16.7818" stroke="#221B96" stroke-width="2" stroke-linecap="round" stroke-linejoin="round"/>
<path d="M10.4432 12.529C10.5482 12.5115 10.6707 12.5115 10.7757 12.529C13.1907 12.4415 15.1157 10.464 15.1157 8.01403C15.1157 5.51153 13.1032 3.49902 10.6007 3.49902C8.0982 3.49902 6.08569 5.52903 6.08569 8.01403C6.10319 10.464 8.0282 12.4415 10.4432 12.529Z" stroke="#221B96" stroke-width="2" stroke-linecap="round" stroke-linejoin="round"/>
<path d="M12.2448 25.2693C9.84727 25.6718 7.20477 25.2518 5.34977 24.0093C2.88227 22.3643 2.88227 19.6693 5.34977 18.0243C7.22227 16.7818 9.89977 16.3618 12.2973 16.7818" stroke="#221B96" stroke-width="2" stroke-linecap="round" stroke-linejoin="round"/>
<path d="M20.9967 25.6003C20.8917 25.5828 20.7692 25.5828 20.6642 25.6003C18.2492 25.5128 16.3242 23.5353 16.3242 21.0853C16.3242 18.5828 18.3367 16.5703 20.8392 16.5703C23.3417 16.5703 25.3542 18.6003 25.3542 21.0853C25.3367 23.5353 23.4117 25.5303 20.9967 25.6003Z" stroke="#FA8970" stroke-width="2" stroke-linecap="round" stroke-linejoin="round"/>
<path d="M15.9062 31.1149C13.4387 32.7599 13.4387 35.4549 15.9062 37.0999C18.7062 38.9724 23.2912 38.9724 26.0912 37.0999C28.5587 35.4549 28.5587 32.7599 26.0912 31.1149C23.3087 29.2599 18.7062 29.2599 15.9062 31.1149Z" stroke="#FA8970" stroke-width="2" stroke-linecap="round" stroke-linejoin="round"/>
</svg>
