<svg width="713" height="756" viewBox="0 0 713 756" fill="none" xmlns="http://www.w3.org/2000/svg">
<path fill-rule="evenodd" clip-rule="evenodd" d="M187.23 519.206L211.478 552.778C223.326 569.184 241.997 579.305 262.21 580.28C262.21 580.28 442.364 588.813 479.471 583.72C485.307 582.964 490.413 579.423 493.168 574.223C493.28 574.007 493.391 573.788 493.495 573.563L529.006 498.188C529.764 496.593 531.375 495.579 533.141 495.587C535.563 495.607 537.603 497.469 537.771 500.386C537.775 500.474 537.762 500.561 537.733 500.644L525.019 537.005C523.069 542.582 526.952 548.199 534.346 548.977C541.328 549.709 550.181 540.957 550.181 540.957C550.181 540.957 537.679 546.683 533.057 540.353C530.38 536.691 545.241 504.347 545.241 504.347C547.49 497.902 544.3 490.824 537.982 488.239C531.664 485.655 524.428 488.467 521.514 494.64L485.983 570.012C485.911 570.168 485.833 570.322 485.768 570.465C483.407 574.934 476.638 571.452 478.803 566.891C487.801 547.846 508.144 506.226 508.144 506.226C523.609 473.122 504.189 434.223 504.189 434.223L383.566 230.039C377.467 219.712 364.375 215.928 353.707 221.411L346.505 225.11C341.133 227.87 337.086 232.66 335.262 238.418C333.438 244.175 333.988 250.423 336.79 255.772L399.544 375.628L338.875 408.885L195.963 381.754L142.103 309.534C137.944 303.955 130.086 302.732 124.428 306.782L117.855 311.483C112.25 315.493 110.835 323.226 114.659 328.961L117.589 333.363" fill="white"/>
<path fill-rule="evenodd" clip-rule="evenodd" d="M485.503 582.243C483.618 583.19 481.59 583.818 479.5 584.103C442.788 589.156 263.976 580.765 262.182 580.691C241.835 579.759 223.034 569.568 211.147 553.028L186.899 519.456C186.815 519.34 186.8 519.188 186.858 519.058C186.917 518.927 187.041 518.838 187.183 518.824C187.325 518.809 187.464 518.872 187.548 518.988L211.802 552.561C223.547 568.904 242.124 578.975 262.229 579.897C264.039 579.977 442.77 588.373 479.411 583.329C485.12 582.59 490.117 579.128 492.814 574.042C492.925 573.831 493.039 573.61 493.132 573.399L528.642 498.02C529.465 496.286 531.217 495.184 533.137 495.195C535.882 495.215 537.993 497.392 538.152 500.37C538.159 500.51 538.139 500.649 538.093 500.781L525.382 537.14C524.54 539.422 524.81 541.967 526.113 544.022C527.708 546.538 530.72 548.204 534.376 548.589C539.352 549.11 545.424 544.564 548.27 542.139C544.448 543.498 536.366 545.581 532.717 540.594C529.98 536.856 543.328 507.528 544.858 504.194C547.025 497.945 543.923 491.092 537.797 488.597C531.671 486.102 524.664 488.836 521.848 494.821L486.336 570.196L486.099 570.674C484.773 573.183 482.233 573.36 480.436 572.464C478.536 571.513 477.237 569.242 478.434 566.731C487.324 547.903 507.569 506.466 507.78 506.059C515.716 489.07 514.217 470.505 511.577 457.918C508.701 444.255 503.88 434.498 503.832 434.403L383.225 230.241C377.223 220.104 364.368 216.39 353.884 221.764L346.682 225.462C341.405 228.175 337.429 232.882 335.636 238.538C333.844 244.194 334.383 250.332 337.135 255.589L399.895 375.446C399.993 375.641 399.914 375.878 399.719 375.977L339.05 409.234C338.97 409.278 338.877 409.292 338.787 409.274L195.894 382.146C195.796 382.128 195.709 382.074 195.649 381.995L141.785 309.764C137.735 304.393 130.149 303.212 124.658 307.099L118.081 311.802C112.629 315.673 111.254 323.184 114.982 328.735L117.918 333.139C118.039 333.322 117.989 333.569 117.806 333.691C117.623 333.812 117.376 333.763 117.254 333.579L114.321 329.179C110.351 323.274 111.813 315.282 117.614 311.165L124.189 306.459C130.031 302.321 138.103 303.577 142.411 309.294L196.182 381.39L338.802 408.47L399.007 375.45L336.422 255.948C333.572 250.505 333.012 244.149 334.868 238.291C336.723 232.433 340.84 227.559 346.305 224.749L353.507 221.051L353.677 220.965C364.511 215.521 377.711 219.393 383.888 229.828L504.511 434.012C504.574 434.135 509.434 443.97 512.333 457.723C515.007 470.43 516.515 489.19 508.477 506.389C508.252 506.821 488.022 548.234 479.133 567.056C478.123 569.198 479.275 570.968 480.788 571.738C482.3 572.508 484.316 572.338 485.405 570.298C485.48 570.149 485.554 570.006 485.624 569.855L521.136 494.48C524.146 488.129 531.596 485.239 538.101 487.9C544.607 490.561 547.896 497.844 545.593 504.484C539.643 517.435 531.493 537.576 533.355 540.122C537.742 546.114 549.883 540.65 550.003 540.589C550.178 540.51 550.384 540.567 550.492 540.724C550.601 540.882 550.581 541.095 550.446 541.23C550.079 541.591 541.381 550.106 534.293 549.365C530.395 548.956 527.171 547.159 525.444 544.434C524.01 542.178 523.712 539.381 524.637 536.873L537.348 500.514C537.362 500.481 537.368 500.444 537.365 500.408C537.227 497.822 535.483 495.996 533.134 495.979C531.522 495.974 530.052 496.899 529.359 498.354L493.848 573.729C493.74 573.956 493.632 574.179 493.514 574.402C491.736 577.794 488.933 580.538 485.503 582.243Z" fill="#242022"/>
<path fill-rule="evenodd" clip-rule="evenodd" d="M184.551 515.506L187.226 519.209L184.551 515.506Z" fill="white"/>
<path fill-rule="evenodd" clip-rule="evenodd" d="M187.404 519.562C187.23 519.652 187.016 519.602 186.901 519.443L184.219 515.744C184.09 515.565 184.13 515.314 184.309 515.185C184.489 515.056 184.739 515.096 184.868 515.275L187.543 518.978C187.605 519.063 187.631 519.169 187.614 519.273C187.598 519.377 187.54 519.47 187.455 519.532L187.404 519.562Z" fill="#242022"/>
<path fill-rule="evenodd" clip-rule="evenodd" d="M245.138 517.632L185.325 437.416C182.175 433.193 177.418 430.462 172.182 429.871C166.947 429.281 161.701 430.884 157.689 434.299L151.401 439.653C143.834 446.093 142.487 457.267 148.306 465.321L184.542 515.505" fill="white"/>
<path fill-rule="evenodd" clip-rule="evenodd" d="M245.318 517.985C245.146 518.075 244.935 518.028 244.819 517.873L185.006 437.648C181.923 433.514 177.266 430.841 172.142 430.262C167.018 429.684 161.882 431.252 157.955 434.595L151.667 439.949C144.301 446.279 142.987 457.185 148.636 465.085L184.868 515.27C184.998 515.45 184.957 515.7 184.778 515.829C184.599 515.959 184.348 515.918 184.219 515.739L147.987 465.554C142.1 457.319 143.47 445.953 151.145 439.353L157.427 433.976C161.522 430.491 166.876 428.856 172.219 429.46C177.562 430.063 182.417 432.85 185.632 437.16L245.463 517.412C245.526 517.496 245.552 517.601 245.538 517.705C245.523 517.809 245.467 517.903 245.383 517.965L245.318 517.985Z" fill="#242022"/>
<path fill-rule="evenodd" clip-rule="evenodd" d="M149.514 228.901L154.624 213.412C155.341 211.239 157.684 210.06 159.856 210.777C160.899 211.12 161.762 211.865 162.256 212.845C162.75 213.826 162.834 214.963 162.49 216.005L157.377 231.497" fill="white"/>
<path fill-rule="evenodd" clip-rule="evenodd" d="M157.566 231.856C157.473 231.903 157.364 231.912 157.264 231.879C157.164 231.847 157.081 231.775 157.034 231.681C156.986 231.587 156.978 231.478 157.012 231.378L162.134 215.904C162.707 213.964 161.636 211.919 159.714 211.284C157.793 210.65 155.715 211.656 155.02 213.556L149.907 229.048C149.827 229.238 149.614 229.335 149.418 229.27C149.222 229.206 149.109 229.001 149.158 228.801L154.271 213.309C155.057 210.931 157.622 209.64 160.001 210.426C162.379 211.212 163.67 213.777 162.884 216.155L157.774 231.645C157.735 231.739 157.661 231.815 157.566 231.856Z" fill="#242022"/>
<path fill-rule="evenodd" clip-rule="evenodd" d="M146.674 239.773L153.721 253.765L178.351 241.36L171.785 228.325" fill="white"/>
<path fill-rule="evenodd" clip-rule="evenodd" d="M178.546 241.722L153.902 254.134C153.707 254.232 153.469 254.154 153.371 253.959L146.318 239.957C146.22 239.762 146.299 239.524 146.494 239.426C146.689 239.327 146.926 239.406 147.025 239.601L153.899 253.25L177.837 241.193L171.444 228.501C171.346 228.306 171.424 228.068 171.619 227.97C171.814 227.872 172.052 227.95 172.15 228.145L178.721 241.191C178.819 241.386 178.741 241.624 178.546 241.722Z" fill="#242022"/>
<path fill-rule="evenodd" clip-rule="evenodd" d="M97.196 400.162L57.244 323.478C51.3354 312.626 55.3237 299.039 66.1605 293.102C76.3575 287.519 89.1302 290.659 95.5768 300.333L157.952 394.591L197.662 404.587" fill="white"/>
<path fill-rule="evenodd" clip-rule="evenodd" d="M197.838 404.934C197.752 404.977 197.653 404.987 197.56 404.963L157.855 394.969C157.76 394.945 157.676 394.886 157.622 394.803L95.2432 300.547C88.7199 290.724 75.616 287.785 65.5227 293.881C55.4294 299.977 51.931 312.943 57.5881 323.288L97.5437 399.98C97.6419 400.175 97.5634 400.412 97.3684 400.51C97.1734 400.609 96.9358 400.53 96.8376 400.335L56.8873 323.655C51.0736 312.941 54.7111 299.549 65.1463 293.249C75.5815 286.949 89.1261 289.967 95.8996 300.101L158.193 394.232L197.737 404.197C197.948 404.251 198.076 404.465 198.023 404.677C197.999 404.785 197.932 404.878 197.838 404.934Z" fill="#242022"/>
<path fill-rule="evenodd" clip-rule="evenodd" d="M344.705 513.018L347.631 511.849C386.043 496.489 429.681 502.243 462.799 527.035" fill="white"/>
<path fill-rule="evenodd" clip-rule="evenodd" d="M462.976 527.392C462.842 527.461 462.681 527.447 462.561 527.358C429.554 502.647 386.06 496.911 347.775 512.219L344.851 513.391C344.647 513.471 344.417 513.372 344.336 513.168C344.255 512.964 344.355 512.733 344.559 512.653L347.485 511.484C386.024 496.071 429.81 501.846 463.034 526.725C463.125 526.785 463.187 526.88 463.205 526.987C463.224 527.094 463.198 527.204 463.133 527.291C463.09 527.337 463.036 527.371 462.976 527.392Z" fill="#242022"/>
<path fill-rule="evenodd" clip-rule="evenodd" d="M244.604 232.582L255.515 215.578L314.018 254.519C322.136 259.923 325.458 270.209 322.036 279.34L316.968 292.839L244.604 232.582Z" fill="white"/>
<path fill-rule="evenodd" clip-rule="evenodd" d="M317.145 293.193L317.071 293.231C316.947 293.263 316.816 293.234 316.717 293.152L244.349 232.888C244.196 232.76 244.162 232.538 244.27 232.37L255.181 215.366C255.238 215.277 255.328 215.214 255.432 215.192C255.536 215.169 255.644 215.19 255.732 215.248L314.225 254.186C322.53 259.667 325.927 270.172 322.405 279.478L317.341 292.984C317.304 293.076 317.234 293.151 317.145 293.193ZM245.127 232.501L316.797 292.187L321.663 279.201C325.061 270.239 321.791 260.118 313.791 254.838L255.642 216.134L245.127 232.501Z" fill="#242022"/>
<path fill-rule="evenodd" clip-rule="evenodd" d="M159.758 398.173C159.563 398.271 159.325 398.193 159.227 397.998L74.4435 229.669C74.3452 229.474 74.4237 229.237 74.6187 229.139C74.8137 229.04 75.0514 229.119 75.1496 229.314L159.933 397.642C160.031 397.837 159.953 398.075 159.758 398.173Z" fill="#242022"/>
<circle cx="145.232" cy="352.71" r="4.28127" transform="rotate(-26.7334 145.232 352.71)" fill="white"/>
<path fill-rule="evenodd" clip-rule="evenodd" d="M147.336 356.884C145.028 358.044 142.218 357.114 141.058 354.807C139.897 352.5 140.826 349.689 143.133 348.529C145.44 347.368 148.251 348.296 149.412 350.602C150.572 352.91 149.643 355.722 147.336 356.884ZM143.485 349.237C141.569 350.204 140.8 352.541 141.767 354.456C142.733 356.372 145.07 357.142 146.986 356.176C148.902 355.21 149.672 352.874 148.707 350.958C147.741 349.039 145.402 348.267 143.483 349.234L143.485 349.237Z" fill="#242022"/>
<path fill-rule="evenodd" clip-rule="evenodd" d="M196.706 270.403C196.706 270.403 197.707 257.969 208.445 247.923C219.182 237.876 230.743 226.662 245.801 231.838C260.859 237.014 314.456 290.732 314.456 290.732L229.054 341.675L196.706 270.403Z" fill="white"/>
<path fill-rule="evenodd" clip-rule="evenodd" d="M229.233 342.026C229.141 342.071 229.036 342.08 228.939 342.05C228.831 342.017 228.742 341.939 228.695 341.837L196.339 270.568C196.312 270.507 196.301 270.439 196.307 270.372C196.319 270.246 197.436 257.675 208.165 247.637L208.806 247.039C219.178 237.323 230.936 226.315 245.926 231.468C252.226 233.633 265.721 244.222 286.04 262.936C301.152 276.858 314.595 290.32 314.729 290.456C314.815 290.542 314.857 290.663 314.842 290.784C314.826 290.905 314.756 291.012 314.652 291.075L229.257 342.013L229.233 342.026ZM197.108 270.332L229.216 341.11L313.8 290.655C309.084 285.948 259.819 237.086 245.657 232.215C231.119 227.219 220.039 237.594 209.335 247.619L208.697 248.215C198.721 257.56 197.231 269.146 197.111 270.331L197.108 270.332Z" fill="#242022"/>
<path fill-rule="evenodd" clip-rule="evenodd" d="M149.551 232.005L165.042 237.118C166.085 237.462 166.949 238.206 167.442 239.187C167.936 240.168 168.02 241.304 167.676 242.347C166.959 244.52 164.616 245.699 162.444 244.983L146.956 239.867" fill="white"/>
<path fill-rule="evenodd" clip-rule="evenodd" d="M165.783 245.099C164.711 245.642 163.466 245.735 162.324 245.359L146.822 240.251C146.722 240.218 146.639 240.147 146.592 240.053C146.544 239.959 146.537 239.849 146.57 239.749C146.639 239.543 146.861 239.431 147.068 239.499L162.559 244.612C164.5 245.185 166.545 244.114 167.179 242.192C167.813 240.271 166.808 238.193 164.907 237.498L149.416 232.385C149.21 232.316 149.098 232.094 149.165 231.887C149.198 231.787 149.269 231.704 149.363 231.656C149.457 231.609 149.567 231.601 149.666 231.634L165.154 236.749C166.896 237.324 168.119 238.892 168.255 240.72C168.39 242.549 167.411 244.279 165.773 245.105L165.783 245.099Z" fill="#242022"/>
<path fill-rule="evenodd" clip-rule="evenodd" d="M152.143 224.142L167.634 229.255C169.807 229.972 170.987 232.315 170.27 234.487C169.926 235.53 169.181 236.393 168.201 236.887C167.22 237.381 166.083 237.465 165.041 237.121L149.549 232.008" fill="white"/>
<path fill-rule="evenodd" clip-rule="evenodd" d="M168.377 237.24C167.303 237.785 166.057 237.877 164.916 237.496L149.424 232.383C149.218 232.314 149.106 232.092 149.174 231.885C149.206 231.785 149.278 231.702 149.372 231.654C149.466 231.607 149.575 231.599 149.675 231.633L165.163 236.748C166.447 237.217 167.885 236.95 168.915 236.051C169.945 235.152 170.403 233.763 170.111 232.427C169.819 231.091 168.822 230.021 167.511 229.634L152.032 224.536C151.826 224.468 151.714 224.245 151.781 224.039C151.85 223.832 152.072 223.72 152.279 223.788L167.77 228.901C169.512 229.476 170.736 231.044 170.871 232.874C171.006 234.704 170.025 236.434 168.385 237.258L168.377 237.24Z" fill="#242022"/>
<path fill-rule="evenodd" clip-rule="evenodd" d="M154.744 216.275L170.232 221.39C171.275 221.734 172.138 222.478 172.632 223.459C173.126 224.439 173.21 225.576 172.865 226.619C172.522 227.661 171.777 228.525 170.797 229.019C169.816 229.513 168.679 229.597 167.637 229.252L152.145 224.139" fill="white"/>
<path fill-rule="evenodd" clip-rule="evenodd" d="M170.994 229.364C169.92 229.909 168.672 230.002 167.529 229.622L152.033 224.533C151.826 224.464 151.714 224.242 151.782 224.035C151.851 223.829 152.073 223.717 152.28 223.785L167.771 228.898C169.712 229.471 171.757 228.4 172.391 226.478C173.025 224.557 172.02 222.479 170.119 221.784L154.628 216.671C154.528 216.638 154.445 216.567 154.397 216.473C154.35 216.378 154.342 216.269 154.375 216.169C154.444 215.963 154.667 215.851 154.873 215.919L170.365 221.032C172.09 221.615 173.3 223.173 173.437 224.99C173.574 226.806 172.612 228.528 170.994 229.364Z" fill="#242022"/>
<path fill-rule="evenodd" clip-rule="evenodd" d="M415.416 465.694L482.458 431.926L314.454 290.731L254.294 324.506L254.34 324.545L176.884 371.216C162.065 380.146 153.827 396.909 155.813 414.096C157.453 428.299 165.869 440.827 178.398 447.714L257.131 491.011L286.949 433.876L233.237 413.675L309.606 372.974L415.416 465.694Z" fill="white"/>
<path fill-rule="evenodd" clip-rule="evenodd" d="M482.639 432.283L415.596 466.05C415.452 466.123 415.277 466.101 415.156 465.993L309.554 373.456L234.203 413.622L287.096 433.506C287.202 433.546 287.286 433.629 287.326 433.735C287.366 433.841 287.36 433.958 287.308 434.059L257.493 491.191C257.444 491.286 257.358 491.356 257.255 491.387C257.154 491.417 257.044 491.405 256.951 491.354L178.208 448.066C164.25 440.388 155.454 425.841 155.139 409.913C154.824 393.985 163.039 379.102 176.684 370.878L253.945 324.329C253.981 324.261 254.035 324.205 254.102 324.166L314.265 290.388C314.41 290.299 314.595 290.313 314.725 290.422L482.729 431.618C482.832 431.703 482.885 431.834 482.87 431.967C482.854 432.106 482.766 432.226 482.639 432.283ZM415.475 465.223L481.748 431.843L314.419 291.206L254.69 324.738C254.658 324.799 254.609 324.849 254.55 324.884L177.101 371.551C163.695 379.626 155.624 394.247 155.934 409.894C156.243 425.541 164.886 439.831 178.6 447.37L256.967 490.475L286.391 434.096L233.1 414.046C232.955 413.992 232.854 413.857 232.844 413.702C232.833 413.546 232.915 413.4 233.052 413.326L309.418 372.627C309.564 372.55 309.742 372.572 309.865 372.681L415.475 465.223Z" fill="#242022"/>
<path fill-rule="evenodd" clip-rule="evenodd" d="M233.239 413.675C232.807 413.424 217.764 407.943 217.764 407.943L233.239 413.675Z" fill="white"/>
<path fill-rule="evenodd" clip-rule="evenodd" d="M233.415 414.029C233.298 414.088 233.159 414.085 233.044 414.021C232.575 413.784 223.573 410.483 217.63 408.315C217.488 408.275 217.38 408.159 217.351 408.014C217.321 407.869 217.375 407.719 217.491 407.627C217.606 407.534 217.764 407.514 217.899 407.574C220.419 408.491 232.995 413.081 233.438 413.336C233.562 413.409 233.637 413.545 233.632 413.689C233.627 413.833 233.544 413.964 233.415 414.029Z" fill="#242022"/>
<path fill-rule="evenodd" clip-rule="evenodd" d="M254.342 324.547L309.608 372.976L254.342 324.547Z" fill="white"/>
<path fill-rule="evenodd" clip-rule="evenodd" d="M309.783 373.328C309.639 373.401 309.466 373.38 309.344 373.274L254.078 324.845C253.962 324.756 253.905 324.609 253.931 324.464C253.956 324.319 254.06 324.2 254.2 324.156C254.34 324.111 254.494 324.148 254.598 324.252L309.864 372.68C310.027 372.824 310.044 373.073 309.901 373.237C309.868 373.275 309.827 373.305 309.783 373.328Z" fill="#242022"/>
<path fill-rule="evenodd" clip-rule="evenodd" d="M236.14 479.471L237.617 415.325L286.949 433.877L257.131 491.012L236.14 479.471Z" fill="white"/>
<path fill-rule="evenodd" clip-rule="evenodd" d="M257.313 491.366L257.249 491.398C257.148 491.428 257.038 491.416 256.945 491.365L235.947 479.81C235.825 479.739 235.749 479.609 235.748 479.467L237.22 415.337C237.222 415.209 237.285 415.09 237.391 415.017C237.498 414.944 237.634 414.928 237.755 414.975L287.074 433.512C287.18 433.552 287.264 433.635 287.304 433.741C287.345 433.846 287.338 433.964 287.286 434.064L257.472 491.197C257.437 491.268 257.381 491.327 257.313 491.366ZM236.548 479.253L256.975 490.485L286.399 434.106L238.006 415.905L236.548 479.253Z" fill="#242022"/>
<path fill-rule="evenodd" clip-rule="evenodd" d="M272.606 265.517L264.872 307.828C263.154 317.225 257.397 325.393 249.126 330.171L167.035 377.388L144.638 341.445L225.462 293.277L230.052 250.938" fill="white"/>
<path fill-rule="evenodd" clip-rule="evenodd" d="M167.212 377.738C167.029 377.832 166.805 377.769 166.697 377.595L144.303 341.65C144.248 341.56 144.231 341.452 144.256 341.35C144.281 341.248 144.346 341.16 144.436 341.105L225.088 293.038L229.66 250.898C229.684 250.681 229.879 250.524 230.097 250.548C230.314 250.572 230.471 250.767 230.447 250.984L225.858 293.327C225.844 293.45 225.773 293.56 225.666 293.623L145.183 341.579L167.165 376.855L248.908 329.836C257.091 325.125 262.787 317.053 264.482 307.765L272.218 265.458C272.256 265.243 272.461 265.1 272.676 265.138C272.781 265.156 272.873 265.215 272.934 265.302C272.994 265.389 273.017 265.496 272.998 265.6L265.262 307.908C263.537 317.432 257.705 325.713 249.318 330.545L167.229 377.73L167.212 377.738Z" fill="#242022"/>
<path fill-rule="evenodd" clip-rule="evenodd" d="M225.462 293.273L233.277 288.938L225.462 293.273Z" fill="white"/>
<path fill-rule="evenodd" clip-rule="evenodd" d="M225.638 293.631C225.443 293.729 225.205 293.651 225.107 293.456C225.009 293.261 225.087 293.023 225.282 292.925L233.096 288.586C233.291 288.488 233.529 288.567 233.627 288.762C233.725 288.956 233.647 289.194 233.452 289.292L225.638 293.631Z" fill="#242022"/>
<path fill-rule="evenodd" clip-rule="evenodd" d="M152.021 254.625L180.528 240.267L215.663 299.092L186.398 316.461L152.021 254.625Z" fill="white"/>
<path fill-rule="evenodd" clip-rule="evenodd" d="M186.574 316.813C186.487 316.857 186.386 316.866 186.291 316.84C186.189 316.812 186.102 316.744 186.05 316.652L151.672 254.812C151.574 254.617 151.652 254.379 151.847 254.281L180.353 239.923C180.539 239.829 180.765 239.895 180.872 240.074L216.01 298.897C216.065 298.987 216.081 299.095 216.055 299.197C216.029 299.299 215.963 299.387 215.872 299.44L186.606 316.806L186.574 316.813ZM152.571 254.803L186.548 315.924L215.124 298.963L180.382 240.795L152.571 254.803Z" fill="#242022"/>
<path fill-rule="evenodd" clip-rule="evenodd" d="M212.777 216.641L222.506 235.957C222.506 235.957 216.582 264.083 208.437 247.912L200.305 231.767" fill="white"/>
<path fill-rule="evenodd" clip-rule="evenodd" d="M214.968 252.961C214.636 253.133 214.277 253.246 213.907 253.297C211.917 253.555 209.96 251.806 208.093 248.098L199.955 231.942C199.857 231.747 199.936 231.51 200.131 231.411C200.326 231.313 200.563 231.392 200.662 231.587L208.794 247.732C210.494 251.107 212.187 252.711 213.8 252.505C217.815 251.979 221.114 240.539 222.087 235.995L212.428 216.817C212.33 216.622 212.408 216.384 212.603 216.286C212.798 216.187 213.036 216.266 213.134 216.461L222.863 235.777C222.903 235.857 222.914 235.948 222.896 236.035C222.765 236.663 219.788 250.534 214.968 252.961Z" fill="#242022"/>
<path fill-rule="evenodd" clip-rule="evenodd" d="M265.238 475.643L293.882 488.212L307.128 462.804L278.882 449.336L265.238 475.643Z" fill="white"/>
<path fill-rule="evenodd" clip-rule="evenodd" d="M294.058 488.57C293.953 488.623 293.83 488.626 293.722 488.58L265.077 476.007C264.976 475.964 264.898 475.88 264.861 475.777C264.825 475.674 264.832 475.561 264.882 475.463L278.524 449.152C278.622 448.962 278.854 448.884 279.047 448.977L307.293 462.445C307.391 462.492 307.465 462.576 307.499 462.678C307.533 462.78 307.524 462.892 307.474 462.987L294.23 488.394C294.193 488.47 294.133 488.531 294.058 488.57ZM265.767 475.461L293.688 487.712L306.57 462.996L279.037 449.864L265.767 475.461Z" fill="#242022"/>
<path fill-rule="evenodd" clip-rule="evenodd" d="M270.342 477.884L283.954 451.752L278.882 449.336L265.238 475.643L270.342 477.884Z" fill="white"/>
<path fill-rule="evenodd" clip-rule="evenodd" d="M270.517 478.235C270.411 478.287 270.287 478.289 270.179 478.241L265.071 476.007C264.97 475.964 264.892 475.88 264.856 475.777C264.819 475.674 264.826 475.561 264.876 475.463L278.518 449.152C278.616 448.962 278.848 448.884 279.041 448.977L284.115 451.397C284.211 451.443 284.284 451.527 284.318 451.628C284.352 451.73 284.343 451.841 284.293 451.935L270.685 478.066C270.647 478.138 270.589 478.197 270.517 478.235ZM265.778 475.446L270.16 477.369L283.41 451.932L279.051 449.852L265.778 475.446Z" fill="#242022"/>
<path fill-rule="evenodd" clip-rule="evenodd" d="M270.342 477.887L276.591 480.627L290.073 454.675L283.954 451.755L270.342 477.887Z" fill="white"/>
<path fill-rule="evenodd" clip-rule="evenodd" d="M276.768 480.976C276.663 481.029 276.54 481.033 276.432 480.986L270.181 478.243C270.082 478.199 270.005 478.116 269.968 478.014C269.933 477.911 269.941 477.797 269.992 477.701L283.601 451.57C283.699 451.38 283.931 451.302 284.124 451.395L290.242 454.315C290.338 454.361 290.412 454.444 290.446 454.545C290.481 454.646 290.473 454.757 290.424 454.852L276.939 480.806C276.901 480.879 276.841 480.939 276.768 480.976ZM270.884 477.69L276.407 480.114L289.532 454.851L284.122 452.264L270.884 477.69Z" fill="#242022"/>
<path fill-rule="evenodd" clip-rule="evenodd" d="M276.591 480.628L282.864 483.381L295.857 457.433L290.073 454.676L276.591 480.628Z" fill="white"/>
<path fill-rule="evenodd" clip-rule="evenodd" d="M283.041 483.737C282.936 483.79 282.812 483.792 282.704 483.743L276.446 480.986C276.346 480.943 276.268 480.86 276.231 480.756C276.194 480.653 276.202 480.54 276.252 480.442L289.737 454.489C289.836 454.301 290.065 454.225 290.257 454.316L296.039 457.069C296.133 457.117 296.206 457.199 296.243 457.298C296.277 457.4 296.269 457.511 296.221 457.606L283.232 483.553C283.192 483.634 283.124 483.699 283.041 483.737ZM277.137 480.442L282.678 482.874L295.32 457.62L290.248 455.204L277.137 480.442Z" fill="#242022"/>
<path fill-rule="evenodd" clip-rule="evenodd" d="M282.864 483.377L288.092 485.67L300.734 459.756L295.857 457.428L282.864 483.377Z" fill="white"/>
<path fill-rule="evenodd" clip-rule="evenodd" d="M288.268 486.027C288.163 486.08 288.04 486.084 287.932 486.037L282.703 483.74C282.604 483.699 282.527 483.616 282.492 483.514C282.454 483.412 282.459 483.299 282.507 483.201L295.506 457.24C295.603 457.047 295.836 456.967 296.031 457.06L300.908 459.388C301.003 459.434 301.076 459.515 301.111 459.614C301.146 459.713 301.141 459.823 301.096 459.918L288.471 485.823C288.431 485.914 288.359 485.987 288.268 486.027ZM283.394 483.17L287.893 485.144L300.188 459.918L296.02 457.927L283.394 483.17Z" fill="#242022"/>
<path fill-rule="evenodd" clip-rule="evenodd" d="M288.093 485.671L293.883 488.212L307.13 462.804L300.735 459.757L288.093 485.671Z" fill="white"/>
<path fill-rule="evenodd" clip-rule="evenodd" d="M294.059 488.572C293.954 488.625 293.831 488.629 293.723 488.582L287.932 486.041C287.833 485.997 287.756 485.914 287.72 485.812C287.683 485.71 287.689 485.599 287.736 485.502L300.379 459.588C300.474 459.394 300.706 459.313 300.901 459.404L307.303 462.448C307.401 462.494 307.475 462.578 307.509 462.68C307.543 462.783 307.534 462.894 307.483 462.99L294.24 488.396C294.201 488.473 294.137 488.535 294.059 488.572ZM288.629 485.494L293.707 487.721L306.59 463.005L300.909 460.276L288.629 485.494Z" fill="#242022"/>
<path fill-rule="evenodd" clip-rule="evenodd" d="M424.966 444.495L441.422 471.094L466.746 457.684L451.126 430.566L424.966 444.495Z" fill="white"/>
<path fill-rule="evenodd" clip-rule="evenodd" d="M441.602 471.446C441.419 471.539 441.195 471.476 441.087 471.302L424.636 444.696C424.579 444.603 424.563 444.491 424.591 444.386C424.62 444.282 424.691 444.193 424.787 444.142L450.964 430.205C451.159 430.106 451.397 430.185 451.495 430.38L467.107 457.484C467.161 457.578 467.174 457.689 467.144 457.793C467.114 457.896 467.044 457.982 466.95 458.032L441.627 471.442L441.602 471.446ZM425.524 444.641L441.566 470.568L466.197 457.525L450.979 431.107L425.524 444.641Z" fill="#242022"/>
<path fill-rule="evenodd" clip-rule="evenodd" d="M441.423 471.093L445.568 486.485L412.571 524.846L484.23 478.976L466.746 457.683L441.423 471.093Z" fill="#7DB950"/>
<path fill-rule="evenodd" clip-rule="evenodd" d="M412.755 525.217C412.593 525.306 412.391 525.269 412.269 525.13C412.14 524.983 412.139 524.763 412.266 524.614L445.127 486.405L441.016 471.213C440.966 471.029 441.055 470.835 441.227 470.753L466.55 457.343C466.716 457.254 466.922 457.295 467.042 457.44L484.525 478.733C484.596 478.82 484.627 478.933 484.609 479.044C484.592 479.156 484.528 479.254 484.433 479.315L412.791 525.199L412.755 525.217ZM441.893 471.307L445.952 486.397C445.986 486.523 445.954 486.659 445.868 486.758L414.632 523.077L483.643 478.885L466.644 458.185L441.893 471.307Z" fill="#242022"/>
<path fill-rule="evenodd" clip-rule="evenodd" d="M427.897 449.233L453.93 435.439L451.126 430.566L424.966 444.495L427.897 449.233Z" fill="white"/>
<path fill-rule="evenodd" clip-rule="evenodd" d="M428.077 449.584C427.894 449.678 427.67 449.615 427.562 449.441L424.636 444.696C424.579 444.603 424.563 444.491 424.591 444.386C424.62 444.282 424.691 444.193 424.787 444.142L450.964 430.205C451.159 430.106 451.397 430.185 451.495 430.38L454.297 435.249C454.35 435.341 454.364 435.451 454.335 435.553C454.305 435.657 454.234 435.744 454.138 435.794L428.107 449.591L428.077 449.584ZM425.525 444.642L428.012 448.701L453.359 435.27L450.946 431.086L425.525 444.642Z" fill="#242022"/>
<path fill-rule="evenodd" clip-rule="evenodd" d="M427.897 449.229L431.489 455.033L457.313 441.309L453.93 435.436L427.897 449.229Z" fill="white"/>
<path fill-rule="evenodd" clip-rule="evenodd" d="M431.665 455.393C431.481 455.486 431.256 455.422 431.149 455.246L427.559 449.445C427.5 449.351 427.484 449.236 427.514 449.129C427.544 449.021 427.618 448.932 427.718 448.882L453.749 435.085C453.944 434.987 454.182 435.065 454.28 435.26L457.677 441.127C457.732 441.22 457.746 441.331 457.717 441.434C457.687 441.537 457.618 441.623 457.523 441.674L431.685 455.405L431.665 455.393ZM428.456 449.387L431.628 454.517L456.767 441.156L453.777 435.965L428.456 449.387Z" fill="#242022"/>
<path fill-rule="evenodd" clip-rule="evenodd" d="M431.487 455.041L435.09 460.866L460.51 446.867L457.312 441.317L431.487 455.041Z" fill="white"/>
<path fill-rule="evenodd" clip-rule="evenodd" d="M435.266 461.21C435.082 461.304 434.857 461.24 434.749 461.063L431.144 455.24C431.087 455.147 431.07 455.035 431.098 454.93C431.128 454.824 431.2 454.735 431.297 454.684L457.136 440.953C457.323 440.858 457.551 440.926 457.656 441.107L460.855 446.658C460.908 446.75 460.921 446.859 460.893 446.962C460.865 447.064 460.797 447.151 460.704 447.203L435.284 461.201L435.266 461.21ZM432.044 455.181L435.229 460.327L459.968 446.707L457.16 441.835L432.044 455.181Z" fill="#242022"/>
<path fill-rule="evenodd" clip-rule="evenodd" d="M435.091 460.861L438.099 465.716L463.211 451.545L460.512 446.863L435.091 460.861Z" fill="white"/>
<path fill-rule="evenodd" clip-rule="evenodd" d="M438.274 466.078C438.09 466.171 437.865 466.107 437.757 465.931L434.754 461.074C434.698 460.983 434.681 460.874 434.707 460.77C434.734 460.664 434.804 460.574 434.9 460.522L460.317 446.525C460.504 446.431 460.732 446.498 460.837 446.679L463.533 451.363C463.587 451.454 463.602 451.563 463.575 451.666C463.544 451.767 463.477 451.852 463.386 451.906L438.274 466.078ZM435.646 461.012L438.232 465.19L462.665 451.401L460.362 447.399L435.646 461.012Z" fill="#242022"/>
<path fill-rule="evenodd" clip-rule="evenodd" d="M438.098 465.718L441.422 471.095L466.745 457.686L463.21 451.547L438.098 465.718Z" fill="white"/>
<path fill-rule="evenodd" clip-rule="evenodd" d="M441.6 471.446C441.417 471.539 441.193 471.476 441.085 471.302L437.756 465.923C437.699 465.829 437.683 465.715 437.714 465.608C437.745 465.502 437.818 465.414 437.917 465.364L463.029 451.193C463.216 451.099 463.444 451.166 463.55 451.347L467.084 457.486C467.138 457.579 467.151 457.691 467.12 457.795C467.091 457.898 467.021 457.984 466.926 458.034L441.603 471.444L441.6 471.446ZM438.646 465.851L441.57 470.575L466.201 457.531L463.064 452.086L438.646 465.851Z" fill="#242022"/>
<path fill-rule="evenodd" clip-rule="evenodd" d="M445.568 486.49L460.497 483.464L445.568 486.49Z" fill="white"/>
<path fill-rule="evenodd" clip-rule="evenodd" d="M460.678 483.818L460.583 483.866L445.656 486.887C445.446 486.923 445.245 486.786 445.202 486.577C445.159 486.369 445.289 486.163 445.497 486.113L460.426 483.091C460.634 483.018 460.862 483.127 460.935 483.335C461.007 483.543 460.898 483.77 460.69 483.843L460.678 483.818Z" fill="#242022"/>
<path fill-rule="evenodd" clip-rule="evenodd" d="M443.281 478.006L458.132 474.045L443.281 478.006Z" fill="white"/>
<path fill-rule="evenodd" clip-rule="evenodd" d="M458.311 474.389L458.237 474.426L443.377 478.37C443.276 478.398 443.168 478.384 443.077 478.332C442.986 478.279 442.919 478.193 442.892 478.092C442.864 477.99 442.878 477.881 442.931 477.79C442.984 477.698 443.071 477.632 443.173 477.605L458.034 473.661C458.238 473.583 458.468 473.685 458.547 473.89C458.626 474.095 458.523 474.324 458.319 474.403L458.311 474.389Z" fill="#242022"/>
<path fill-rule="evenodd" clip-rule="evenodd" d="M412.571 524.846L415.266 528.738L487.444 484.111L484.229 478.976L412.571 524.846Z" fill="white"/>
<path fill-rule="evenodd" clip-rule="evenodd" d="M415.444 529.091C415.267 529.182 415.051 529.128 414.938 528.965L412.243 525.073C412.182 524.985 412.16 524.875 412.181 524.77C412.202 524.665 412.266 524.573 412.356 524.516L484.012 478.642C484.101 478.584 484.21 478.565 484.313 478.588C484.415 478.614 484.503 478.676 484.561 478.764L487.776 483.899C487.831 483.988 487.849 484.096 487.825 484.198C487.801 484.301 487.738 484.39 487.648 484.446L415.474 529.071L415.444 529.091ZM413.123 524.947L415.372 528.191L486.912 483.974L484.116 479.513L413.123 524.947Z" fill="#242022"/>
<path fill-rule="evenodd" clip-rule="evenodd" d="M203.538 191.246C197.274 186.615 188.717 186.635 182.474 191.294C176.231 195.953 173.778 204.152 176.435 211.474C176.842 212.598 191.717 241.007 192.024 241.352C192.182 241.534 192.362 241.695 192.561 241.83C196.338 244.301 204.983 243.642 215.47 214.6C215.47 214.6 216.923 210.035 210.595 203.586C210.08 198.664 207.519 194.186 203.538 191.246Z" fill="white"/>
<path fill-rule="evenodd" clip-rule="evenodd" d="M198.997 242.289C198.612 242.485 198.212 242.652 197.802 242.789C195.995 243.464 193.976 243.241 192.36 242.188C192.135 242.036 191.932 241.854 191.756 241.647C191.726 241.619 191.701 241.587 191.681 241.552C190.67 239.896 176.522 212.79 176.067 211.633C176.065 211.623 176.06 211.613 176.053 211.605C173.376 204.121 175.9 195.765 182.274 191.016C188.648 186.266 197.376 186.236 203.782 190.941C207.82 193.93 210.434 198.463 210.997 203.455C217.311 209.946 215.935 214.569 215.871 214.766C211.958 225.558 205.945 238.789 198.997 242.289ZM192.341 241.119C192.477 241.273 192.629 241.41 192.795 241.528C194.21 242.446 195.977 242.636 197.554 242.039C201.502 240.72 207.753 234.871 215.108 214.497C215.099 214.479 216.382 210.066 210.323 203.898C210.26 203.835 210.219 203.753 210.206 203.665C209.698 198.842 207.19 194.453 203.293 191.566C197.168 187.044 188.804 187.065 182.703 191.619C176.601 196.173 174.202 204.186 176.795 211.344C177.166 212.317 191.61 240.01 192.341 241.119Z" fill="#242022"/>
<path fill-rule="evenodd" clip-rule="evenodd" d="M197.868 182.339L193.298 131.259L220.774 113.415L197.868 182.339Z" fill="#FF4F5B"/>
<path fill-rule="evenodd" clip-rule="evenodd" d="M198.047 182.69C197.977 182.724 197.899 182.738 197.822 182.728C197.637 182.706 197.492 182.558 197.475 182.372L192.905 131.293C192.893 131.147 192.962 131.007 193.084 130.928L220.558 113.08C220.699 112.985 220.885 112.991 221.019 113.095C221.154 113.199 221.207 113.377 221.152 113.538L198.242 182.463C198.209 182.562 198.139 182.643 198.047 182.69ZM193.714 131.463L198.091 180.412L220.044 114.359L193.714 131.463Z" fill="#242022"/>
<path fill-rule="evenodd" clip-rule="evenodd" d="M200.355 183.788L236.171 128.413L238.577 161.775L200.355 183.788Z" fill="#FF4F5B"/>
<path fill-rule="evenodd" clip-rule="evenodd" d="M200.536 184.145C200.378 184.233 200.181 184.203 200.057 184.072C199.929 183.94 199.909 183.737 200.009 183.582L235.825 128.207C235.918 128.065 236.09 127.998 236.255 128.039C236.42 128.081 236.54 128.224 236.553 128.394L238.954 161.758C238.966 161.91 238.89 162.055 238.757 162.132L200.54 184.143L200.536 184.145ZM235.863 129.613L201.581 182.631L238.161 161.55L235.863 129.613Z" fill="#242022"/>
<path fill-rule="evenodd" clip-rule="evenodd" d="M207.867 179.914C207.742 179.978 207.593 179.97 207.475 179.895C207.358 179.82 207.288 179.688 207.293 179.548L207.538 172.055C207.541 171.947 207.588 171.844 207.669 171.772C207.75 171.7 207.856 171.663 207.965 171.672L218.854 172.482L218.976 154.383C218.976 154.253 219.04 154.132 219.147 154.059C219.255 153.985 219.391 153.969 219.512 154.016L238.724 161.402C238.864 161.447 238.968 161.565 238.993 161.71C239.019 161.854 238.962 162.001 238.846 162.091C238.73 162.181 238.574 162.199 238.44 162.138L219.773 154.955L219.651 172.904C219.649 173.013 219.602 173.117 219.521 173.19C219.44 173.265 219.333 173.303 219.224 173.296L208.301 172.498L208.071 179.581C208.066 179.721 207.989 179.847 207.867 179.914Z" fill="#242022"/>
<path fill-rule="evenodd" clip-rule="evenodd" d="M197.311 174.451C197.148 174.539 196.946 174.503 196.824 174.364C196.755 174.285 196.72 174.182 196.727 174.077C196.734 173.972 196.782 173.874 196.862 173.805L201.513 169.718L195.6 160.958C195.478 160.778 195.525 160.532 195.705 160.41L207.135 152.687L192.968 131.495C192.91 131.407 192.89 131.3 192.911 131.197C192.932 131.094 192.993 131.004 193.081 130.946L220.555 113.098C220.739 112.978 220.986 113.031 221.105 113.215C221.225 113.399 221.173 113.645 220.989 113.765L193.85 131.391L208.017 152.584C208.137 152.765 208.088 153.01 207.907 153.131L196.48 160.851L202.367 169.576C202.477 169.741 202.448 169.962 202.299 170.093L197.392 174.41C197.366 174.427 197.339 174.44 197.311 174.451Z" fill="#242022"/>
<path fill-rule="evenodd" clip-rule="evenodd" d="M191.348 214.026C191.552 216.351 190.565 218.622 188.724 220.057L191.348 214.026Z" fill="white"/>
<path fill-rule="evenodd" clip-rule="evenodd" d="M188.894 220.4C188.708 220.516 188.463 220.46 188.346 220.275C188.229 220.089 188.285 219.844 188.471 219.727C189.376 219.022 190.078 218.09 190.505 217.025C190.888 216.08 191.039 215.057 190.945 214.041C190.936 213.937 190.969 213.833 191.036 213.753C191.103 213.672 191.2 213.622 191.305 213.613C191.409 213.603 191.513 213.636 191.594 213.703C191.674 213.771 191.724 213.867 191.733 213.972C191.838 215.112 191.668 216.26 191.238 217.32C190.759 218.514 189.972 219.559 188.957 220.35C188.939 220.37 188.917 220.386 188.894 220.4Z" fill="#242022"/>
<path fill-rule="evenodd" clip-rule="evenodd" d="M180.201 208.099C182.412 206.207 185.572 205.906 188.1 207.347L180.201 208.099Z" fill="white"/>
<path fill-rule="evenodd" clip-rule="evenodd" d="M188.287 207.691C188.168 207.75 188.028 207.745 187.914 207.68C185.53 206.323 182.552 206.607 180.468 208.389C180.361 208.488 180.21 208.52 180.072 208.474C179.935 208.428 179.834 208.31 179.809 208.167C179.784 208.024 179.84 207.88 179.953 207.79C182.291 205.789 185.632 205.47 188.306 206.991C188.434 207.062 188.512 207.199 188.508 207.347C188.504 207.494 188.419 207.626 188.287 207.691Z" fill="#242022"/>
<path fill-rule="evenodd" clip-rule="evenodd" d="M179.905 217.537L179.308 224.875L183.411 222.229" fill="white"/>
<path fill-rule="evenodd" clip-rule="evenodd" d="M179.486 225.229C179.358 225.292 179.206 225.282 179.088 225.203C178.97 225.123 178.904 224.986 178.915 224.843L179.509 217.507C179.549 217.313 179.724 217.179 179.921 217.191C180.118 217.203 180.276 217.359 180.291 217.556L179.767 224.109L183.199 221.898C183.382 221.78 183.625 221.831 183.744 222.013C183.801 222.101 183.82 222.208 183.798 222.311C183.776 222.413 183.714 222.503 183.626 222.56L179.525 225.209L179.486 225.229Z" fill="#242022"/>
<circle cx="184.526" cy="212.508" r="0.992242" transform="rotate(-26.7334 184.526 212.508)" fill="#242022"/>
<path fill-rule="evenodd" clip-rule="evenodd" d="M185.064 213.569C184.957 213.624 184.842 213.662 184.724 213.683C184.246 213.769 183.764 213.556 183.507 213.144C183.25 212.732 183.269 212.205 183.557 211.814C183.834 211.417 184.324 211.228 184.796 211.338C185.268 211.447 185.626 211.832 185.701 212.31C185.753 212.621 185.68 212.94 185.497 213.196C185.385 213.354 185.237 213.482 185.064 213.569ZM184.177 211.804C184.061 211.862 183.961 211.947 183.886 212.053C183.631 212.411 183.715 212.908 184.073 213.162C184.431 213.417 184.928 213.333 185.183 212.975C185.308 212.803 185.359 212.587 185.324 212.377C185.29 212.17 185.174 211.984 185.002 211.862C184.759 211.684 184.437 211.66 184.17 211.799L184.177 211.804Z" fill="#242022"/>
<path fill-rule="evenodd" clip-rule="evenodd" d="M178.785 195.022C178.572 195.31 178.375 195.605 178.183 195.9C179.525 199.686 182.485 202.677 186.256 204.058C190.028 205.439 194.219 205.066 197.688 203.042C197.868 206.4 200.539 209.089 203.895 209.29C207.252 209.492 210.226 207.143 210.807 203.831L210.606 203.617C210.406 201.733 209.907 199.893 209.126 198.166C208.031 195.747 206.401 193.607 204.359 191.909C204.086 191.684 203.81 191.46 203.523 191.251C195.637 185.515 184.604 187.197 178.785 195.022Z" fill="#FF4F5B"/>
<path fill-rule="evenodd" clip-rule="evenodd" d="M207.465 208.953C205.447 209.975 203.06 209.96 201.054 208.914C199.049 207.868 197.671 205.919 197.354 203.679C192.713 206.106 187.103 205.725 182.832 202.695C180.517 201.05 178.767 198.729 177.821 196.052C177.779 195.936 177.793 195.808 177.859 195.705C178.07 195.377 178.271 195.081 178.477 194.805C184.418 186.785 195.718 185.06 203.78 190.944C204.053 191.143 204.333 191.365 204.636 191.615C206.722 193.353 208.385 195.543 209.499 198.018C210.279 199.743 210.785 201.579 210.997 203.461L211.107 203.573C211.194 203.664 211.233 203.79 211.212 203.914C210.835 206.096 209.449 207.971 207.473 208.971L207.465 208.953ZM197.512 202.69C197.627 202.632 197.764 202.635 197.878 202.696C198.004 202.762 198.085 202.89 198.091 203.032C198.249 206.159 200.708 208.681 203.83 208.918C206.953 209.155 209.764 207.034 210.393 203.966L210.333 203.908C210.27 203.845 210.229 203.763 210.215 203.675C210.023 201.834 209.536 200.037 208.773 198.351C207.709 195.98 206.117 193.884 204.12 192.223C203.829 191.979 203.563 191.768 203.303 191.576C195.589 185.964 184.794 187.611 179.105 195.27C178.945 195.488 178.787 195.718 178.616 195.959C179.963 199.585 182.845 202.43 186.489 203.731C190.132 205.031 194.164 204.653 197.503 202.699L197.512 202.69Z" fill="#242022"/>
<path fill-rule="evenodd" clip-rule="evenodd" d="M205.989 210.398C205.882 207.579 207.503 204.98 210.081 203.837C212.659 202.693 215.674 203.236 217.691 205.207C219.708 207.179 220.32 210.18 219.236 212.783C218.152 215.387 215.591 217.067 212.771 217.025" fill="white"/>
<path fill-rule="evenodd" clip-rule="evenodd" d="M216.151 216.639C215.101 217.159 213.942 217.419 212.771 217.399C212.628 217.4 212.495 217.323 212.425 217.198C212.354 217.073 212.357 216.92 212.432 216.798C212.506 216.675 212.642 216.603 212.785 216.609C215.873 216.661 218.572 214.533 219.24 211.517C219.909 208.502 218.363 205.433 215.542 204.175C212.721 202.917 209.405 203.819 207.608 206.331C206.77 207.499 206.346 208.913 206.406 210.35C206.421 210.496 206.354 210.639 206.232 210.72C206.109 210.802 205.952 210.808 205.823 210.738C205.694 210.667 205.614 210.531 205.617 210.384C205.509 207.606 206.99 205.009 209.436 203.689C211.882 202.368 214.867 202.555 217.129 204.169C219.204 205.652 220.353 208.113 220.157 210.656C219.961 213.199 218.45 215.454 216.172 216.602L216.151 216.639Z" fill="#242022"/>
<path fill-rule="evenodd" clip-rule="evenodd" d="M215.325 214.086C215.13 214.184 214.892 214.105 214.794 213.91C213.812 211.96 211.435 211.176 209.485 212.158C209.29 212.256 209.052 212.178 208.954 211.983C208.856 211.788 208.934 211.55 209.129 211.452C211.079 210.47 211.864 208.093 210.882 206.143C210.784 205.948 210.862 205.71 211.057 205.612C211.252 205.514 211.49 205.592 211.588 205.787C212.57 207.737 214.947 208.522 216.897 207.54C217.092 207.441 217.329 207.52 217.428 207.715C217.526 207.91 217.447 208.148 217.252 208.246C215.303 209.228 214.518 211.605 215.5 213.555C215.598 213.75 215.52 213.987 215.325 214.086ZM211.012 210.946C211.602 210.916 212.193 210.995 212.754 211.18C213.316 211.366 213.839 211.655 214.295 212.033C214.234 210.841 214.621 209.67 215.381 208.75C214.189 208.812 213.016 208.425 212.095 207.665C212.157 208.857 211.771 210.028 211.014 210.95L211.012 210.946Z" fill="#242022"/>
<path fill-rule="evenodd" clip-rule="evenodd" d="M211.009 210.949C211.599 210.919 212.19 210.998 212.751 211.183C213.313 211.369 213.836 211.658 214.292 212.036C214.231 210.844 214.619 209.673 215.378 208.753C214.186 208.815 213.014 208.428 212.092 207.669C212.154 208.86 211.768 210.031 211.011 210.953L211.009 210.949Z" fill="#FDF33C"/>
<path fill-rule="evenodd" clip-rule="evenodd" d="M164.179 372.803L149.905 349.894L132.078 359.696C129.951 360.875 129.18 363.552 130.352 365.682C131.43 367.631 133.794 368.467 135.858 367.632C134.053 368.935 133.507 371.381 134.584 373.328C135.66 375.281 138.026 376.122 140.093 375.285C138.187 376.642 137.675 379.253 138.929 381.228C140.184 383.204 142.765 383.852 144.803 382.703L147.024 381.505L147.056 381.569L164.179 372.803Z" fill="white"/>
<path fill-rule="evenodd" clip-rule="evenodd" d="M144.821 383.126C142.833 384.128 140.416 383.632 138.985 381.926C137.553 380.221 137.482 377.756 138.813 375.971C136.937 376.12 135.146 375.158 134.235 373.511C133.323 371.864 133.459 369.836 134.581 368.325C132.705 368.475 130.914 367.512 130.004 365.863C128.724 363.544 129.563 360.626 131.88 359.341L149.711 349.537C149.894 349.444 150.117 349.507 150.226 349.681L164.5 372.59C164.559 372.685 164.576 372.8 164.545 372.908C164.514 373.013 164.442 373.101 164.346 373.154L147.223 381.903C147.156 381.945 147.075 381.96 146.997 381.946L144.971 383.037L144.821 383.126ZM149.763 350.417L132.263 360.041C130.423 361.074 129.699 363.357 130.607 365.261C131.515 367.166 133.744 368.041 135.705 367.262C135.896 367.184 136.115 367.267 136.208 367.451C136.298 367.625 136.247 367.839 136.089 367.954C134.445 369.14 133.947 371.367 134.928 373.14C135.909 374.913 138.061 375.674 139.939 374.912C140.13 374.806 140.371 374.877 140.476 375.068C140.581 375.26 140.511 375.5 140.319 375.605C138.609 376.85 138.16 379.209 139.293 380.994C140.427 382.78 142.753 383.378 144.607 382.36L146.829 381.157C146.903 381.117 146.989 381.101 147.073 381.114L163.617 372.657L149.763 350.417Z" fill="#242022"/>
<path fill-rule="evenodd" clip-rule="evenodd" d="M135.853 367.624L146.616 361.805L135.853 367.624Z" fill="white"/>
<path fill-rule="evenodd" clip-rule="evenodd" d="M136.031 367.981C135.836 368.079 135.598 368.001 135.5 367.806C135.402 367.611 135.48 367.373 135.675 367.275L146.439 361.455C146.634 361.357 146.872 361.435 146.97 361.63C147.068 361.825 146.989 362.063 146.795 362.161L136.031 367.981Z" fill="#242022"/>
<path fill-rule="evenodd" clip-rule="evenodd" d="M139.847 375.447L150.61 369.627L139.847 375.447Z" fill="white"/>
<path fill-rule="evenodd" clip-rule="evenodd" d="M140.023 375.801C139.828 375.899 139.59 375.821 139.492 375.626C139.394 375.431 139.472 375.193 139.667 375.095L150.431 369.275C150.555 369.208 150.706 369.212 150.826 369.286C150.947 369.36 151.019 369.493 151.015 369.634C151.011 369.775 150.932 369.904 150.808 369.971L140.044 375.791L140.023 375.801Z" fill="#242022"/>
<path fill-rule="evenodd" clip-rule="evenodd" d="M98.6704 276.887L138.919 242.194L110.731 240.908L123.204 216.319L76.1484 232.172L98.6704 276.887Z" fill="#6247EA"/>
<path fill-rule="evenodd" clip-rule="evenodd" d="M98.8461 277.246C98.7663 277.285 98.6753 277.297 98.5881 277.278C98.4703 277.254 98.3698 277.178 98.3152 277.07L75.7933 232.355C75.7407 232.253 75.7352 232.133 75.7782 232.027C75.8224 231.921 75.9106 231.839 76.0197 231.803L123.072 215.952C123.224 215.9 123.391 215.945 123.497 216.065C123.602 216.187 123.623 216.36 123.549 216.504L111.354 240.546L138.932 241.807C139.093 241.814 139.233 241.919 139.286 242.071C139.34 242.224 139.294 242.395 139.171 242.501L98.9255 277.192C98.9013 277.213 98.8747 277.231 98.8461 277.246ZM76.7032 232.406L98.7931 276.263L137.903 242.551L110.717 241.305C110.583 241.299 110.461 241.225 110.393 241.108C110.326 240.992 110.322 240.849 110.383 240.729L122.415 217.004L76.7032 232.406Z" fill="#242022"/>
<path fill-rule="evenodd" clip-rule="evenodd" d="M229.727 232.179C221.049 242.552 228.681 263.61 228.681 263.61L227.841 271.337C214.877 249.228 223.425 235.415 223.425 235.415C223.425 235.415 225.003 233.496 229.727 232.179Z" fill="#FE93C0"/>
<path fill-rule="evenodd" clip-rule="evenodd" d="M228.02 271.687C227.993 271.706 227.963 271.721 227.932 271.732C227.764 271.769 227.592 271.693 227.506 271.544C220.757 260.035 219.912 250.79 220.384 245.059C220.904 238.822 223.02 235.352 223.096 235.212L223.127 235.17C223.193 235.088 224.836 233.14 229.631 231.806C229.797 231.759 229.974 231.826 230.068 231.971C230.156 232.115 230.142 232.3 230.034 232.43C221.6 242.507 228.979 263.264 229.05 263.467C229.07 263.523 229.077 263.583 229.072 263.642L228.232 271.369C228.221 271.504 228.141 271.625 228.02 271.687ZM223.736 235.653C223.349 236.317 216.005 249.514 227.569 270.093L228.264 263.661C226.978 259.817 226.068 255.859 225.546 251.84C224.536 243.779 225.611 237.275 228.655 232.923C225.26 234.066 223.912 235.466 223.736 235.653Z" fill="#242022"/>
<path fill-rule="evenodd" clip-rule="evenodd" d="M226.419 233.673C226.419 233.673 236.979 211.578 246.077 209.059C255.174 206.539 280.31 223.814 280.31 223.814L266.26 246.011C266.26 246.011 246.137 222.887 226.419 233.673Z" fill="white"/>
<path fill-rule="evenodd" clip-rule="evenodd" d="M266.449 246.355C266.287 246.443 266.085 246.407 265.963 246.268C262.313 242.315 258.12 238.901 253.508 236.129C243.694 230.334 234.64 229.627 226.595 234.024C226.444 234.105 226.258 234.08 226.135 233.962C226.011 233.845 225.977 233.66 226.05 233.506C226.479 232.6 236.792 211.218 245.96 208.681C255.128 206.144 279.486 222.779 280.522 223.492C280.697 223.613 280.745 223.851 280.63 224.031L266.58 246.227C266.547 246.279 266.502 246.323 266.449 246.355ZM227.295 232.77C235.244 228.921 244.412 229.845 253.926 235.455C258.455 238.182 262.591 241.515 266.219 245.362L279.769 223.93C276.842 221.961 254.459 207.155 246.182 209.447C238.492 211.563 229.553 228.326 227.305 232.765L227.295 232.77Z" fill="#242022"/>
<path fill-rule="evenodd" clip-rule="evenodd" d="M233.777 231.49C233.582 231.588 233.345 231.51 233.246 231.315L230.447 225.757C230.349 225.562 230.428 225.325 230.623 225.226C230.818 225.128 231.055 225.207 231.153 225.402L233.949 230.952C233.999 231.046 234.008 231.156 233.976 231.257C233.944 231.358 233.872 231.442 233.777 231.49Z" fill="#242022"/>
<path fill-rule="evenodd" clip-rule="evenodd" d="M239.901 231.264C239.706 231.362 239.469 231.284 239.37 231.089L233.94 220.306C233.841 220.111 233.92 219.874 234.115 219.775C234.31 219.677 234.547 219.756 234.646 219.951L240.077 230.733C240.175 230.928 240.096 231.166 239.901 231.264Z" fill="#242022"/>
<path fill-rule="evenodd" clip-rule="evenodd" d="M246.639 230.038C246.445 230.136 246.207 230.058 246.109 229.863L238.722 214.24C238.662 214.113 238.674 213.962 238.755 213.846C238.835 213.73 238.971 213.666 239.112 213.677C239.253 213.689 239.377 213.775 239.437 213.902L246.824 229.525C246.909 229.718 246.828 229.944 246.639 230.038Z" fill="#242022"/>
<path fill-rule="evenodd" clip-rule="evenodd" d="M250.07 224.73L250.041 224.744C249.84 224.827 249.61 224.731 249.526 224.53L243.562 210.157C243.478 209.954 243.574 209.723 243.777 209.639C243.979 209.555 244.211 209.652 244.294 209.854L250.241 224.201C250.339 224.394 250.262 224.631 250.07 224.73Z" fill="#242022"/>
<path fill-rule="evenodd" clip-rule="evenodd" d="M253.307 219.67L253.279 219.684C253.182 219.724 253.072 219.724 252.975 219.683C252.878 219.642 252.802 219.564 252.762 219.466L248.457 208.985C248.373 208.782 248.469 208.55 248.672 208.467C248.874 208.383 249.106 208.48 249.189 208.682L253.497 219.167C253.575 219.358 253.492 219.577 253.307 219.67Z" fill="#242022"/>
<path fill-rule="evenodd" clip-rule="evenodd" d="M255.703 215.939C255.606 215.988 255.494 215.995 255.392 215.959C255.29 215.922 255.207 215.846 255.163 215.746L252.497 209.715C252.412 209.522 252.493 209.296 252.681 209.202C252.778 209.153 252.891 209.146 252.993 209.182C253.095 209.219 253.177 209.296 253.221 209.395L255.887 215.426C255.972 215.619 255.891 215.845 255.703 215.939Z" fill="#242022"/>
<path fill-rule="evenodd" clip-rule="evenodd" d="M262.249 220.289C262.152 220.338 262.04 220.345 261.938 220.308C261.836 220.272 261.753 220.195 261.709 220.096L257.885 211.625C257.836 211.528 257.829 211.415 257.866 211.313C257.902 211.211 257.979 211.129 258.078 211.085C258.271 211 258.497 211.081 258.591 211.269L262.394 219.751C262.502 219.94 262.437 220.18 262.249 220.289Z" fill="#242022"/>
<path fill-rule="evenodd" clip-rule="evenodd" d="M267.304 223.657L267.276 223.671C267.179 223.712 267.069 223.712 266.972 223.672C266.875 223.633 266.797 223.556 266.757 223.458L262.73 213.828C262.675 213.697 262.694 213.548 262.78 213.435C262.866 213.322 263.005 213.264 263.145 213.282C263.286 213.3 263.406 213.391 263.461 213.522L267.488 223.152C267.568 223.343 267.488 223.562 267.304 223.657Z" fill="#242022"/>
<path fill-rule="evenodd" clip-rule="evenodd" d="M272.733 227.035L269.102 216.873L272.733 227.035Z" fill="white"/>
<path fill-rule="evenodd" clip-rule="evenodd" d="M272.909 227.386L272.863 227.409C272.658 227.479 272.435 227.373 272.362 227.17L268.731 217.008C268.657 216.801 268.765 216.573 268.972 216.499C269.179 216.425 269.407 216.533 269.481 216.74L273.107 226.901C273.173 227.089 273.088 227.297 272.909 227.386Z" fill="#242022"/>
<path fill-rule="evenodd" clip-rule="evenodd" d="M276.805 229.982C276.781 229.998 276.755 230.012 276.727 230.021C276.625 230.047 276.517 230.031 276.426 229.977C276.336 229.923 276.271 229.835 276.246 229.733L273.797 219.976C273.771 219.873 273.786 219.765 273.841 219.675C273.895 219.584 273.983 219.519 274.085 219.494C274.296 219.44 274.511 219.568 274.565 219.779L277.016 229.539C277.057 229.718 276.969 229.901 276.805 229.982Z" fill="#242022"/>
<path fill-rule="evenodd" clip-rule="evenodd" d="M280.369 253.187L287.747 241.163L306.197 253.347C307.849 254.436 308.99 256.148 309.361 258.092C309.732 260.036 309.3 262.048 308.165 263.669C307.05 265.263 305.348 266.349 303.433 266.688C301.517 267.027 299.546 266.591 297.952 265.476L280.369 253.187Z" fill="#41C8F8"/>
<path fill-rule="evenodd" clip-rule="evenodd" d="M305.647 266.366C304.97 266.705 304.249 266.944 303.504 267.077C301.484 267.438 299.403 266.975 297.726 265.791L280.149 253.496C279.979 253.376 279.93 253.146 280.038 252.968L287.412 240.945C287.468 240.854 287.558 240.789 287.662 240.766C287.767 240.743 287.876 240.763 287.965 240.822L306.401 253.012C308.697 254.534 310.011 257.161 309.852 259.911C309.693 262.661 308.085 265.119 305.629 266.366L305.647 266.366ZM280.911 253.066L298.191 265.167C301.367 267.317 305.684 266.486 307.835 263.31C309.985 260.134 309.154 255.817 305.978 253.666L287.874 241.712L280.911 253.066Z" fill="#242022"/>
<path fill-rule="evenodd" clip-rule="evenodd" d="M284.082 256.15L289.256 248.197L284.082 256.15Z" fill="white"/>
<path fill-rule="evenodd" clip-rule="evenodd" d="M284.255 256.505C284.095 256.588 283.9 256.551 283.78 256.417C283.66 256.282 283.646 256.084 283.746 255.934L288.922 247.985C288.991 247.85 289.131 247.767 289.282 247.77C289.432 247.773 289.568 247.862 289.632 247.999C289.696 248.135 289.676 248.297 289.581 248.414L284.403 256.369C284.367 256.426 284.316 256.473 284.255 256.505Z" fill="#242022"/>
<path fill-rule="evenodd" clip-rule="evenodd" d="M167.351 229.161L151.86 224.048C150.817 223.704 149.954 222.96 149.46 221.979C148.966 220.998 148.882 219.862 149.227 218.819C149.57 217.776 150.315 216.913 151.295 216.419C152.276 215.925 153.413 215.841 154.455 216.185L169.947 221.299" fill="white"/>
<path fill-rule="evenodd" clip-rule="evenodd" d="M167.529 229.516C167.436 229.564 167.327 229.572 167.227 229.54L151.736 224.426C149.418 223.596 148.185 221.069 148.957 218.732C149.729 216.394 152.223 215.098 154.58 215.81L170.071 220.923C170.277 220.992 170.389 221.215 170.322 221.421C170.253 221.627 170.031 221.74 169.824 221.672L154.334 216.562C153.05 216.093 151.612 216.36 150.583 217.259C149.553 218.158 149.094 219.547 149.386 220.883C149.679 222.218 150.675 223.289 151.986 223.676L167.476 228.786C167.576 228.819 167.659 228.89 167.707 228.984C167.754 229.078 167.762 229.187 167.728 229.287C167.695 229.387 167.623 229.469 167.529 229.516Z" fill="#242022"/>
<path fill-rule="evenodd" clip-rule="evenodd" d="M164.761 237.024L149.265 231.918C147.092 231.201 145.912 228.859 146.629 226.686C146.973 225.643 147.717 224.78 148.698 224.286C149.679 223.792 150.815 223.708 151.858 224.052L167.353 229.164" fill="white"/>
<path fill-rule="evenodd" clip-rule="evenodd" d="M164.937 237.377C164.843 237.425 164.735 237.434 164.635 237.401L149.143 232.288C147.604 231.78 146.453 230.489 146.123 228.902C145.794 227.315 146.336 225.673 147.545 224.594C148.755 223.515 150.448 223.164 151.987 223.672L167.477 228.781C167.685 228.85 167.798 229.075 167.73 229.283C167.661 229.491 167.436 229.604 167.228 229.535L151.737 224.422C150.466 224.003 149.069 224.294 148.071 225.185C147.073 226.076 146.626 227.431 146.899 228.741C147.171 230.051 148.122 231.115 149.392 231.534L164.882 236.653C165.088 236.721 165.2 236.944 165.133 237.15C165.1 237.249 165.029 237.33 164.937 237.377Z" fill="#242022"/>
<path fill-rule="evenodd" clip-rule="evenodd" d="M162.162 244.89L146.671 239.777C145.628 239.433 144.765 238.688 144.271 237.708C143.777 236.727 143.693 235.59 144.037 234.548C144.754 232.375 147.097 231.195 149.27 231.912L164.759 237.022" fill="white"/>
<path fill-rule="evenodd" clip-rule="evenodd" d="M162.342 245.245C162.248 245.29 162.14 245.297 162.041 245.263L146.552 240.154C145.013 239.646 143.861 238.356 143.531 236.77C143.201 235.184 143.743 233.542 144.952 232.463C146.161 231.384 147.853 231.032 149.392 231.539L164.883 236.652C165.074 236.732 165.171 236.945 165.106 237.141C165.042 237.337 164.837 237.45 164.636 237.401L149.145 232.288C147.204 231.715 145.159 232.786 144.525 234.707C143.891 236.629 144.896 238.707 146.797 239.402L162.288 244.515C162.494 244.584 162.606 244.806 162.539 245.013C162.507 245.113 162.436 245.197 162.342 245.245Z" fill="#242022"/>
<path fill-rule="evenodd" clip-rule="evenodd" d="M268.77 286.494C268.77 286.494 285.883 288.457 297.402 274.126L290.753 267.711C283.893 278.899 270.125 279.07 270.125 279.07L268.77 286.494Z" fill="#FE93C0"/>
<path fill-rule="evenodd" clip-rule="evenodd" d="M286.858 283.18C281.244 285.988 274.989 287.266 268.723 286.887C268.614 286.876 268.516 286.82 268.45 286.733C268.387 286.643 268.361 286.532 268.379 286.423L269.739 279.001C269.773 278.816 269.932 278.68 270.12 278.677C270.256 278.674 283.755 278.373 290.415 267.507C290.478 267.405 290.583 267.338 290.702 267.323C290.821 267.308 290.94 267.347 291.026 267.43L297.678 273.844C297.825 273.986 297.84 274.216 297.712 274.376C294.771 278.059 291.068 281.062 286.858 283.18ZM269.236 286.136C271.906 286.305 286.628 286.622 296.869 274.157L290.841 268.34C284.47 278.233 272.593 279.337 270.47 279.455L269.236 286.136Z" fill="#242022"/>
<path fill-rule="evenodd" clip-rule="evenodd" d="M55.6657 319.87C57.3629 318.761 59.4424 318.401 61.4137 318.875C63.385 319.349 65.0735 320.615 66.0808 322.375L71.3994 331.669C73.9359 336.104 72.4939 341.752 68.1415 344.429C68.1415 344.429 55.6106 321.562 55.6657 319.87Z" fill="white"/>
<path fill-rule="evenodd" clip-rule="evenodd" d="M68.3194 344.78C68.2326 344.822 68.1332 344.831 68.0401 344.805C67.9355 344.778 67.8465 344.71 67.7938 344.615C65.6947 340.782 55.2164 321.569 55.2697 319.855C55.2748 319.726 55.3424 319.608 55.4509 319.538C57.2388 318.369 59.4304 317.988 61.5078 318.488C63.5853 318.988 65.3644 320.323 66.425 322.177L71.7401 331.473C74.4061 336.088 72.9007 341.987 68.3494 344.76L68.3194 344.78ZM56.0865 320.067C56.6123 322.131 63.6505 335.401 68.2807 343.865C72.2194 341.21 73.428 335.958 71.0458 331.849L65.736 322.572C64.8048 320.943 63.2555 319.758 61.439 319.287C59.6226 318.815 57.6927 319.097 56.0865 320.067Z" fill="#242022"/>
<path fill-rule="evenodd" clip-rule="evenodd" d="M373.995 287.813C373.995 287.813 386.874 289.656 396.109 274.772L373.995 287.813Z" fill="white"/>
<path fill-rule="evenodd" clip-rule="evenodd" d="M385.02 285.892C383.957 286.429 382.853 286.881 381.718 287.246C377.312 288.655 374.089 288.216 373.951 288.197C373.735 288.165 373.585 287.964 373.617 287.748C373.648 287.531 373.849 287.381 374.066 287.413C374.189 287.43 386.796 289.039 395.789 274.555C395.851 274.411 395.993 274.317 396.15 274.316C396.307 274.315 396.449 274.407 396.513 274.55C396.577 274.694 396.55 274.861 396.444 274.977C392.807 280.833 388.604 284.087 385.02 285.892Z" fill="#242022"/>
<path fill-rule="evenodd" clip-rule="evenodd" d="M377.772 295.307C377.772 295.307 390.652 297.15 399.886 282.266L377.772 295.307Z" fill="white"/>
<path fill-rule="evenodd" clip-rule="evenodd" d="M388.799 293.398C387.736 293.935 386.632 294.387 385.497 294.751C381.09 296.161 377.868 295.721 377.732 295.706C377.628 295.691 377.534 295.634 377.471 295.55C377.408 295.465 377.382 295.359 377.398 295.254C377.431 295.039 377.631 294.891 377.846 294.922C377.97 294.94 390.575 296.545 399.568 282.061C399.683 281.877 399.925 281.82 400.11 281.934C400.2 281.989 400.264 282.077 400.288 282.18C400.313 282.282 400.295 282.39 400.239 282.479C396.583 288.331 392.383 291.593 388.799 293.398Z" fill="#242022"/>
<path fill-rule="evenodd" clip-rule="evenodd" d="M394.651 447.498L422.346 381.403L482.46 431.927L415.417 465.695L394.651 447.498Z" fill="white"/>
<path fill-rule="evenodd" clip-rule="evenodd" d="M482.636 432.284L415.594 466.051C415.449 466.124 415.274 466.102 415.153 465.994L394.392 447.8C394.263 447.689 394.22 447.507 394.285 447.349L421.979 381.254C422.028 381.138 422.129 381.052 422.252 381.023C422.374 380.993 422.503 381.024 422.6 381.106L482.712 431.626C482.815 431.711 482.868 431.842 482.853 431.975C482.837 432.108 482.756 432.224 482.636 432.284ZM415.473 465.226L481.745 431.846L422.5 382.053L395.123 447.391L415.473 465.226Z" fill="#242022"/>
<path fill-rule="evenodd" clip-rule="evenodd" d="M187.228 519.203L156.155 505.141C143.99 499.641 134.252 489.889 128.77 477.716L89.1384 389.583C84.6129 379.539 88.6398 367.705 98.3527 362.506C103.308 359.843 109.126 359.285 114.497 360.957C119.868 362.629 124.341 366.391 126.909 371.396L158.781 433.364" fill="white"/>
<path fill-rule="evenodd" clip-rule="evenodd" d="M187.405 519.557C187.298 519.611 187.173 519.614 187.063 519.565L155.99 505.503C143.735 499.966 133.925 490.141 128.407 477.877L88.7769 389.748C84.2083 379.511 88.3017 367.482 98.1665 362.157C103.215 359.445 109.142 358.877 114.614 360.581C120.086 362.285 124.643 366.117 127.259 371.215L159.131 433.184C159.229 433.379 159.151 433.617 158.956 433.715C158.761 433.813 158.523 433.735 158.425 433.54L126.553 371.571C124.033 366.661 119.645 362.97 114.376 361.329C109.106 359.688 103.398 360.235 98.5363 362.847C89.0365 367.975 85.0949 379.559 89.4955 389.417L129.129 477.553C134.568 489.638 144.235 499.319 156.313 504.773L187.383 518.838C187.479 518.881 187.554 518.96 187.591 519.059C187.628 519.157 187.624 519.266 187.581 519.362C187.546 519.445 187.484 519.514 187.405 519.557Z" fill="#242022"/>
<path fill-rule="evenodd" clip-rule="evenodd" d="M88.8592 388.894C91.2959 387.666 94.123 387.467 96.7078 388.341C99.2925 389.214 101.419 391.088 102.611 393.542L107.57 403.748C110.005 408.76 107.965 414.799 102.989 417.307L101.884 417.864L88.8592 388.894Z" fill="white"/>
<path fill-rule="evenodd" clip-rule="evenodd" d="M103.169 417.661L102.064 418.218C101.869 418.316 101.631 418.237 101.533 418.042L88.5067 389.069C88.4214 388.876 88.5024 388.651 88.6908 388.556C91.2225 387.282 94.1593 387.075 96.8443 387.983C99.5293 388.891 101.738 390.837 102.977 393.386L107.934 403.589C110.43 408.795 108.314 415.042 103.169 417.661ZM102.075 417.328L102.813 416.956C107.58 414.532 109.537 408.743 107.218 403.924L102.259 393.719C99.9345 388.933 94.2168 386.876 89.3765 389.084L102.075 417.328Z" fill="#242022"/>
<path fill-rule="evenodd" clip-rule="evenodd" d="M162.895 238.537L164.159 238.954C164.692 239.129 165.133 239.51 165.386 240.011C165.638 240.512 165.681 241.093 165.505 241.626C165.136 242.736 163.94 243.339 162.829 242.974L161.569 242.555L162.895 238.537Z" fill="white"/>
<path fill-rule="evenodd" clip-rule="evenodd" d="M164.627 243.211C164.032 243.512 163.343 243.563 162.711 243.353L161.454 242.932C161.248 242.863 161.136 242.641 161.203 242.434L162.532 238.41C162.601 238.204 162.823 238.092 163.03 238.159L164.293 238.576C165.257 238.896 165.934 239.765 166.009 240.778C166.083 241.791 165.541 242.75 164.634 243.207L164.627 243.211ZM162.07 242.307L162.957 242.6C163.86 242.897 164.833 242.407 165.132 241.505C165.275 241.071 165.241 240.598 165.035 240.19C164.83 239.782 164.47 239.472 164.036 239.33L163.15 239.037L162.07 242.307Z" fill="#242022"/>
<path fill-rule="evenodd" clip-rule="evenodd" d="M165.495 230.677L166.753 231.093C167.287 231.268 167.73 231.649 167.982 232.151C168.235 232.653 168.278 233.235 168.101 233.769C167.925 234.302 167.545 234.743 167.043 234.996C166.542 235.248 165.961 235.291 165.428 235.115L164.165 234.698L165.495 230.677Z" fill="white"/>
<path fill-rule="evenodd" clip-rule="evenodd" d="M167.221 235.348C166.626 235.649 165.935 235.701 165.302 235.491L164.04 235.078C163.94 235.045 163.857 234.974 163.809 234.88C163.762 234.785 163.754 234.676 163.787 234.576L165.117 230.556C165.186 230.349 165.409 230.237 165.615 230.305L166.879 230.722C167.843 231.04 168.52 231.908 168.595 232.92C168.67 233.933 168.128 234.891 167.221 235.348ZM164.667 234.447L165.55 234.741C166.447 235.021 167.403 234.53 167.699 233.637C167.994 232.745 167.52 231.78 166.633 231.469L165.746 231.177L164.667 234.447Z" fill="#242022"/>
<path fill-rule="evenodd" clip-rule="evenodd" d="M168.088 222.814L169.352 223.231C169.885 223.407 170.326 223.787 170.579 224.289C170.831 224.79 170.874 225.371 170.698 225.904C170.523 226.438 170.142 226.881 169.64 227.134C169.138 227.386 168.555 227.429 168.022 227.252L166.767 226.852L168.088 222.814Z" fill="white"/>
<path fill-rule="evenodd" clip-rule="evenodd" d="M169.815 227.482C169.217 227.777 168.527 227.823 167.896 227.607L166.637 227.192C166.537 227.16 166.454 227.088 166.407 226.994C166.359 226.9 166.351 226.791 166.385 226.691L167.711 222.672C167.743 222.571 167.814 222.488 167.909 222.44C168.003 222.393 168.113 222.385 168.213 222.419L169.471 222.835C170.434 223.155 171.111 224.022 171.186 225.035C171.262 226.047 170.721 227.005 169.815 227.464L169.815 227.482ZM167.268 226.596L168.155 226.889C168.747 227.114 169.416 226.995 169.895 226.58C170.374 226.165 170.587 225.521 170.449 224.902C170.311 224.283 169.844 223.79 169.234 223.618L168.347 223.326L167.268 226.596Z" fill="#242022"/>
<path fill-rule="evenodd" clip-rule="evenodd" d="M293.882 488.212L285.713 504.65L252.713 543.013L335.165 491.224L307.129 462.804L293.882 488.212Z" fill="#7DB950"/>
<path fill-rule="evenodd" clip-rule="evenodd" d="M252.891 543.371C252.727 543.459 252.524 543.422 252.403 543.28C252.277 543.132 252.277 542.913 252.405 542.766L285.37 504.438L293.518 488.047L306.779 462.631C306.837 462.518 306.946 462.44 307.071 462.422C307.196 462.403 307.322 462.444 307.411 462.534L335.447 490.954C335.53 491.039 335.57 491.157 335.556 491.275C335.543 491.394 335.476 491.501 335.375 491.565L252.925 543.358L252.891 543.371ZM294.247 488.389L286.081 504.824C286.066 504.854 286.047 504.881 286.025 504.906L254.737 541.282L334.533 491.145L307.222 463.462L294.247 488.389Z" fill="#242022"/>
<path fill-rule="evenodd" clip-rule="evenodd" d="M285.713 504.65L300.639 501.629L285.713 504.65Z" fill="white"/>
<path fill-rule="evenodd" clip-rule="evenodd" d="M300.815 501.979L300.723 502.025L285.793 505.048C285.654 505.075 285.511 505.027 285.418 504.921C285.325 504.815 285.295 504.667 285.34 504.533C285.385 504.399 285.498 504.3 285.637 504.272L300.567 501.249C300.775 501.177 301.002 501.288 301.074 501.496C301.146 501.704 301.035 501.931 300.827 502.003L300.815 501.979Z" fill="#242022"/>
<path fill-rule="evenodd" clip-rule="evenodd" d="M290.922 494.17L301.731 491.288L290.922 494.17Z" fill="white"/>
<path fill-rule="evenodd" clip-rule="evenodd" d="M301.909 491.638L301.835 491.675L291.022 494.559C290.812 494.613 290.597 494.489 290.54 494.279C290.513 494.178 290.527 494.07 290.579 493.979C290.631 493.888 290.717 493.821 290.818 493.794L301.631 490.91C301.841 490.855 302.056 490.98 302.113 491.19C302.157 491.368 302.073 491.554 301.909 491.638Z" fill="#242022"/>
<path fill-rule="evenodd" clip-rule="evenodd" d="M252.71 543.016L255.409 546.906L338.38 496.36L335.162 491.227L252.71 543.016Z" fill="white"/>
<path fill-rule="evenodd" clip-rule="evenodd" d="M255.602 547.276C255.425 547.367 255.209 547.313 255.096 547.15L252.397 543.26C252.336 543.171 252.314 543.06 252.336 542.954C252.358 542.849 252.423 542.758 252.514 542.701L334.964 490.908C335.053 490.853 335.16 490.836 335.262 490.86C335.365 490.88 335.455 490.942 335.509 491.032L338.724 496.167C338.78 496.257 338.798 496.365 338.774 496.467C338.75 496.57 338.686 496.659 338.596 496.714L255.616 547.269L255.602 547.276ZM253.28 543.134L255.529 546.379L337.832 496.236L335.036 491.775L253.28 543.134Z" fill="#242022"/>
<circle cx="546.382" cy="531.929" r="2.28888" transform="rotate(-26.7334 546.382 531.929)" fill="white"/>
<path fill-rule="evenodd" clip-rule="evenodd" d="M547.59 534.327C546.62 534.816 545.452 534.672 544.629 533.963C543.807 533.254 543.493 532.12 543.833 531.089C544.174 530.058 545.101 529.333 546.184 529.253C547.267 529.173 548.291 529.753 548.779 530.723C549.446 532.047 548.914 533.661 547.59 534.327ZM545.528 530.238C544.844 530.583 544.435 531.306 544.492 532.069C544.548 532.833 545.059 533.488 545.787 533.728C546.514 533.968 547.314 533.746 547.814 533.166C548.314 532.586 548.416 531.762 548.071 531.078C547.6 530.146 546.463 529.772 545.53 530.242L545.528 530.238Z" fill="#242022"/>
<circle cx="321.718" cy="614.335" r="2.28888" transform="rotate(-26.7334 321.718 614.335)" fill="white"/>
<path fill-rule="evenodd" clip-rule="evenodd" d="M322.926 616.738C321.956 617.226 320.787 617.082 319.965 616.373C319.142 615.663 318.829 614.528 319.17 613.497C319.511 612.466 320.44 611.742 321.523 611.663C322.606 611.584 323.63 612.166 324.117 613.136C324.781 614.46 324.248 616.071 322.926 616.738ZM320.867 612.652C320.183 612.997 319.774 613.72 319.83 614.483C319.887 615.247 320.398 615.902 321.125 616.142C321.853 616.382 322.653 616.16 323.153 615.58C323.653 615 323.755 614.176 323.41 613.492C322.935 612.567 321.803 612.199 320.874 612.667L320.867 612.652Z" fill="#242022"/>
<circle cx="299.343" cy="618.012" r="12.1915" transform="rotate(-26.7334 299.343 618.012)" fill="white"/>
<path fill-rule="evenodd" clip-rule="evenodd" d="M305.008 629.252C300.461 631.545 294.98 630.872 291.122 627.547C287.264 624.222 285.788 618.901 287.384 614.064C288.98 609.228 293.332 605.829 298.41 605.453C303.489 605.076 308.295 607.797 310.586 612.345C313.704 618.555 311.209 626.117 305.008 629.252ZM294.037 607.471C289.773 609.616 287.222 614.12 287.574 618.88C287.925 623.641 291.11 627.72 295.643 629.217C300.176 630.713 305.164 629.331 308.28 625.715C311.397 622.099 312.028 616.962 309.879 612.699C306.942 606.888 299.856 604.549 294.037 607.471Z" fill="#242022"/>
<circle cx="405.1" cy="321.867" r="3.81084" transform="rotate(-26.7334 405.1 321.867)" fill="white"/>
<path fill-rule="evenodd" clip-rule="evenodd" d="M406.988 325.619C405.468 326.385 403.637 326.159 402.349 325.048C401.06 323.936 400.568 322.158 401.103 320.542C401.637 318.927 403.092 317.792 404.789 317.668C406.486 317.543 408.09 318.454 408.854 319.974C409.897 322.048 409.061 324.575 406.988 325.619ZM403.56 318.819C401.876 319.667 401.198 321.721 402.046 323.406C402.895 325.091 404.948 325.768 406.633 324.92C408.318 324.071 408.996 322.018 408.147 320.333C407.74 319.524 407.027 318.91 406.167 318.626C405.307 318.342 404.369 318.411 403.56 318.819Z" fill="#242022"/>
<circle cx="154.947" cy="288.311" r="2.28888" transform="rotate(-26.7334 154.947 288.311)" fill="white"/>
<path fill-rule="evenodd" clip-rule="evenodd" d="M156.154 290.701C155.184 291.191 154.015 291.048 153.192 290.339C152.368 289.631 152.053 288.495 152.394 287.464C152.734 286.432 153.663 285.707 154.747 285.628C155.83 285.549 156.855 286.13 157.342 287.101C158.005 288.423 157.474 290.033 156.154 290.701ZM154.096 286.615C153.411 286.958 153 287.68 153.056 288.445C153.111 289.209 153.621 289.864 154.349 290.105C155.076 290.346 155.877 290.125 156.378 289.545C156.878 288.965 156.98 288.14 156.635 287.456C156.164 286.525 155.03 286.149 154.096 286.615Z" fill="#242022"/>
<circle cx="449.383" cy="548.25" r="8.85111" transform="rotate(-26.7334 449.383 548.25)" fill="white"/>
<path fill-rule="evenodd" clip-rule="evenodd" d="M453.538 556.505C448.977 558.802 443.418 556.967 441.12 552.407C438.823 547.846 440.658 542.286 445.219 539.989C449.78 537.692 455.339 539.527 457.636 544.088C459.927 548.649 458.093 554.203 453.538 556.505ZM445.573 540.696C441.402 542.797 439.724 547.881 441.824 552.052C443.925 556.222 449.009 557.901 453.18 555.8C457.351 553.699 459.029 548.615 456.928 544.444C454.824 540.277 449.744 538.6 445.573 540.696Z" fill="#242022"/>
<circle cx="427.085" cy="336.266" r="10.5233" transform="rotate(-26.7334 427.085 336.266)" fill="white"/>
<path fill-rule="evenodd" clip-rule="evenodd" d="M431.989 346.008C428.045 347.994 423.293 347.409 419.948 344.526C416.603 341.642 415.325 337.027 416.709 332.834C418.093 328.64 421.868 325.693 426.272 325.367C430.676 325.041 434.843 327.4 436.829 331.344C439.535 336.731 437.369 343.29 431.989 346.008ZM422.522 327.21C417.526 329.726 415.516 335.815 418.033 340.811C420.549 345.807 426.638 347.817 431.634 345.3C436.63 342.784 438.64 336.695 436.123 331.699C433.598 326.718 427.52 324.717 422.529 327.224L422.522 327.21Z" fill="#242022"/>
<circle cx="31.0776" cy="251.508" r="11.2942" transform="rotate(-26.7334 31.0776 251.508)" fill="white"/>
<path fill-rule="evenodd" clip-rule="evenodd" d="M36.3376 261.95C30.5718 264.854 23.5434 262.534 20.6392 256.768C17.7351 251.002 20.055 243.974 25.8208 241.07C31.5867 238.166 38.6151 240.485 41.5192 246.251C44.4139 252.018 42.0963 259.039 36.3376 261.95ZM26.1772 241.774C20.8014 244.482 18.6384 251.035 21.3461 256.411C24.0538 261.786 30.6068 263.949 35.9827 261.242C41.3585 258.534 43.5215 251.981 40.8138 246.605C38.1 241.236 31.5538 239.076 26.1772 241.774Z" fill="#242022"/>
<circle cx="314.627" cy="225.433" r="7.16707" transform="rotate(-26.7334 314.627 225.433)" fill="white"/>
<path fill-rule="evenodd" clip-rule="evenodd" d="M318.041 232.184C315.309 233.562 312.015 233.158 309.696 231.161C307.377 229.163 306.49 225.965 307.448 223.059C308.407 220.152 311.022 218.109 314.075 217.883C317.127 217.656 320.015 219.291 321.392 222.025C323.264 225.756 321.766 230.298 318.041 232.184ZM311.59 219.378C309.141 220.61 307.676 223.196 307.877 225.93C308.079 228.664 309.908 231.007 312.511 231.866C315.114 232.725 317.978 231.931 319.768 229.854C321.557 227.778 321.919 224.827 320.684 222.38C318.998 219.045 314.931 217.703 311.59 219.378Z" fill="#242022"/>
<circle cx="542.031" cy="473.362" r="7.16707" transform="rotate(-26.7334 542.031 473.362)" fill="white"/>
<path fill-rule="evenodd" clip-rule="evenodd" d="M545.429 480.122C541.699 481.998 537.153 480.496 535.276 476.765C533.398 473.035 534.9 468.489 538.63 466.611C542.36 464.733 546.906 466.234 548.785 469.964C550.66 473.696 549.158 478.241 545.429 480.122ZM538.979 467.32C535.641 469.004 534.299 473.075 535.982 476.414C537.666 479.753 541.737 481.096 545.077 479.413C548.416 477.73 549.759 473.659 548.077 470.32C546.391 466.982 542.32 465.639 538.979 467.32Z" fill="#242022"/>
<circle cx="314.722" cy="556.882" r="4.0164" transform="rotate(-26.7334 314.722 556.882)" fill="white"/>
<path fill-rule="evenodd" clip-rule="evenodd" d="M316.697 560.829C315.102 561.631 313.182 561.392 311.831 560.225C310.481 559.058 309.967 557.193 310.528 555.499C311.09 553.805 312.617 552.616 314.397 552.487C316.177 552.358 317.86 553.314 318.66 554.91C319.749 557.087 318.871 559.734 316.697 560.829ZM313.082 553.654C311.773 554.312 310.989 555.693 311.096 557.154C311.203 558.615 312.18 559.868 313.571 560.328C314.962 560.788 316.493 560.365 317.45 559.255C318.407 558.146 318.601 556.569 317.942 555.261C317.041 553.478 314.868 552.76 313.082 553.654Z" fill="#242022"/>
<path fill-rule="evenodd" clip-rule="evenodd" d="M184.551 515.506L187.226 519.209L184.551 515.506Z" fill="white"/>
<path fill-rule="evenodd" clip-rule="evenodd" d="M187.404 519.562C187.23 519.652 187.016 519.602 186.901 519.443L184.219 515.744C184.09 515.565 184.13 515.314 184.309 515.185C184.489 515.056 184.739 515.096 184.868 515.275L187.543 518.978C187.605 519.063 187.631 519.169 187.614 519.273C187.598 519.377 187.54 519.47 187.455 519.532L187.404 519.562Z" fill="#242022"/>
<path fill-rule="evenodd" clip-rule="evenodd" d="M245.138 517.632L185.325 437.416C182.175 433.193 177.418 430.462 172.182 429.871C166.947 429.281 161.701 430.884 157.689 434.299L151.401 439.653C143.834 446.093 142.487 457.267 148.306 465.321L184.542 515.505" fill="white"/>
<path fill-rule="evenodd" clip-rule="evenodd" d="M245.318 517.985C245.146 518.075 244.935 518.028 244.819 517.873L185.006 437.648C181.923 433.514 177.266 430.841 172.142 430.262C167.018 429.684 161.882 431.252 157.955 434.595L151.667 439.949C144.301 446.279 142.987 457.185 148.636 465.085L184.868 515.27C184.998 515.45 184.957 515.7 184.778 515.829C184.599 515.959 184.348 515.918 184.219 515.739L147.987 465.554C142.1 457.319 143.47 445.953 151.145 439.353L157.427 433.976C161.522 430.491 166.876 428.856 172.219 429.46C177.562 430.063 182.417 432.85 185.632 437.16L245.463 517.412C245.526 517.496 245.552 517.601 245.538 517.705C245.523 517.809 245.467 517.903 245.383 517.965L245.318 517.985Z" fill="#242022"/>
<path fill-rule="evenodd" clip-rule="evenodd" d="M152.443 471.048C154.897 468.834 158.153 467.726 161.448 467.983C164.744 468.24 167.789 469.839 169.871 472.406L176.147 480.138C180.296 485.254 179.57 492.754 174.515 496.979L172.432 498.723L152.443 471.048Z" fill="white"/>
<path fill-rule="evenodd" clip-rule="evenodd" d="M172.611 499.078C172.541 499.113 172.461 499.127 172.383 499.117C172.274 499.104 172.176 499.046 172.112 498.957L152.121 471.279C152.003 471.116 152.027 470.891 152.176 470.756C154.712 468.47 158.076 467.326 161.48 467.592C164.883 467.857 168.029 469.508 170.181 472.159L176.451 479.89C180.711 485.181 179.966 492.907 174.771 497.286L172.697 499.021L172.611 499.078ZM152.975 471.11L172.503 498.15L174.264 496.679C179.127 492.58 179.828 485.348 175.842 480.392L169.572 472.661C167.596 470.226 164.722 468.688 161.6 468.397C158.477 468.106 155.369 469.085 152.977 471.114L152.975 471.11Z" fill="#242022"/>
<path fill-rule="evenodd" clip-rule="evenodd" d="M667.275 542.644L668.479 545.034C668.479 545.034 675.689 542.16 680.971 547.152L645.407 565.065C644.537 557.846 651.137 553.769 651.137 553.769L649.933 551.379L667.275 542.644Z" fill="#41C8F8"/>
<path fill-rule="evenodd" clip-rule="evenodd" d="M681.161 547.525L645.597 565.437C645.482 565.495 645.346 565.493 645.232 565.433C645.119 565.372 645.042 565.259 645.027 565.131C644.248 558.654 649.333 554.584 650.638 553.652L649.584 551.558C649.485 551.363 649.564 551.125 649.759 551.027L667.101 542.292C667.296 542.194 667.534 542.273 667.632 542.468L668.679 544.547C670.202 544.055 676.501 542.378 681.247 546.87C681.341 546.959 681.385 547.087 681.367 547.215C681.348 547.342 681.269 547.453 681.154 547.511L681.161 547.525ZM645.758 564.473L680.287 547.081C675.296 542.849 668.706 545.39 668.642 545.422C668.451 545.499 668.232 545.417 668.14 545.232L667.105 543.177L650.469 551.557L651.495 553.594C651.588 553.777 651.525 554 651.351 554.109C651.297 554.158 645.332 557.941 645.758 564.473Z" fill="#242022"/>
<path fill-rule="evenodd" clip-rule="evenodd" d="M547.405 550.472C554.365 543.656 572.68 542.522 585.771 543.626C597.796 544.651 609.354 548.501 621.122 551.143C632.89 553.785 645.416 555.173 656.838 551.302C668.259 547.43 678.216 537.152 678.393 525.094C678.395 524.766 678.393 524.435 678.383 524.108C679.139 526.415 680.62 528.415 682.605 529.811C683.897 530.67 685.488 531.219 687 530.873C688.512 530.528 689.813 529.076 689.61 527.54C689.431 526.192 688.26 525.237 687.362 524.211C683.552 519.871 685.172 514.142 686.484 509.161C687.753 504.308 689.328 499.509 689.943 494.507C690.644 488.772 688.62 483.094 683.702 478.919C680.36 476.07 668.96 472.445 659.301 483.649C655.362 488.218 654.791 495.406 657.511 500.79L657.605 500.978L657.437 500.952L625.489 517.043C619.766 519.926 614.703 524.171 608.711 526.441C595.897 531.302 585.165 530.909 571.839 534.084C565.603 535.483 559.673 538.001 554.335 541.515C551.561 543.311 549.036 547.146 547.405 550.472ZM659.048 501.226C658.919 500.209 658.861 499.183 658.875 498.158C658.937 494.09 660.329 489.927 663.255 487.099C666.181 484.27 670.769 483.053 674.509 484.661C677.478 485.933 679.576 488.789 680.494 491.885C681.903 496.633 680.798 501.638 679.574 506.3C678.541 510.242 677.397 514.28 677.418 518.39C674.848 510.062 667.58 503.05 659.031 501.235L659.048 501.226Z" fill="white"/>
<path fill-rule="evenodd" clip-rule="evenodd" d="M661.592 549.755C660.093 550.51 658.542 551.158 656.951 551.694C644.344 555.954 630.406 553.644 621.02 551.538C617.482 550.744 613.901 549.812 610.449 548.935C602.411 546.87 594.099 544.736 585.717 544.027C571.429 542.814 554.129 544.445 547.662 550.761C547.524 550.896 547.31 550.912 547.154 550.8C546.998 550.686 546.946 550.477 547.033 550.304C548.02 548.301 550.691 543.401 554.099 541.185C559.4 537.695 565.283 535.182 571.47 533.764L571.706 533.706C576.955 532.457 581.815 531.753 586.515 531.076C593.863 530.031 600.792 529.016 608.541 526.077C612.038 524.759 615.278 522.685 618.426 520.718C620.632 519.324 622.917 517.885 625.279 516.696L657.012 500.712C654.312 495.123 655.118 487.874 658.982 483.392C668.662 472.16 680.17 475.411 683.936 478.617C688.797 482.759 691.082 488.412 690.314 494.558C689.844 498.388 688.8 502.15 687.792 505.782C687.481 506.922 687.15 508.102 686.844 509.261L686.755 509.611C685.493 514.425 684.062 519.882 687.646 523.964C687.818 524.165 688.006 524.363 688.199 524.571C689.001 525.424 689.834 526.305 689.991 527.514C690.237 529.373 688.67 530.92 687.078 531.283C685.63 531.614 683.949 531.222 682.378 530.167C680.831 529.108 679.58 527.669 678.747 525.99C678.227 535.591 671.474 544.777 661.592 549.755ZM551.284 547.331C554.564 545.679 558.94 544.444 564.218 543.702C571.371 542.771 578.603 542.619 585.789 543.248C594.234 543.96 602.578 546.105 610.646 548.176C614.1 549.066 617.668 549.982 621.196 550.772C640.604 555.13 650.756 552.964 656.698 550.955C669.07 546.772 677.821 536.15 677.983 525.118C677.988 524.792 677.985 524.471 677.974 524.149C677.968 523.955 678.103 523.785 678.294 523.748C678.485 523.712 678.674 523.819 678.74 524.002C679.605 526.412 681.016 528.317 682.812 529.511C683.623 530.049 685.231 530.895 686.897 530.512C688.157 530.227 689.385 528.993 689.203 527.62C689.08 526.664 688.369 525.911 687.619 525.116C687.427 524.911 687.232 524.709 687.058 524.513C683.2 520.113 684.684 514.439 685.997 509.436L686.086 509.085C686.385 507.921 686.72 506.739 687.038 505.596C688.039 501.994 689.09 498.246 689.533 494.486C690.253 488.622 688.084 483.208 683.43 479.24C681.679 477.75 678.043 476.305 673.868 476.434C670.202 476.546 664.746 477.93 659.589 483.932C655.87 488.244 655.123 495.277 657.849 500.636L657.952 500.841C658.009 500.972 657.991 501.124 657.904 501.237C657.818 501.35 657.679 501.409 657.539 501.39L657.491 501.383L625.655 517.418C623.325 518.592 621.061 520.02 618.871 521.402C615.695 523.409 612.413 525.478 608.842 526.834C601.012 529.804 594.028 530.816 586.648 531.878C581.965 532.554 577.123 533.249 571.912 534.493L571.671 534.552C565.572 535.944 559.772 538.416 554.544 541.851C552.063 543.464 549.968 546.626 548.688 548.89C549.51 548.301 550.377 547.777 551.281 547.324L551.284 547.331ZM677.581 518.767C677.548 518.791 677.511 518.809 677.472 518.822C677.278 518.851 677.093 518.733 677.036 518.546C674.477 510.186 667.198 503.406 658.956 501.649C658.793 501.612 658.67 501.478 658.649 501.312C658.517 500.275 658.458 499.231 658.474 498.187C658.543 493.676 660.184 489.544 662.973 486.855C666.159 483.786 670.963 482.751 674.66 484.337C677.514 485.556 679.845 488.365 680.877 491.829C682.306 496.651 681.207 501.702 679.958 506.456L679.733 507.308C678.775 510.934 677.787 514.685 677.821 518.452C677.8 518.591 677.708 518.708 677.578 518.76L677.581 518.767ZM659.394 500.932C667.15 502.683 674.019 508.727 677.098 516.36C677.35 513.214 678.17 510.115 678.967 507.101L679.19 506.25C680.392 501.608 681.492 496.681 680.12 492.06C679.161 488.83 677.007 486.223 674.354 485.085C670.957 483.614 666.491 484.588 663.527 487.44C660.888 489.986 659.337 493.91 659.27 498.215C659.251 499.118 659.29 500.021 659.387 500.918L659.394 500.932Z" fill="#242022"/>
<path fill-rule="evenodd" clip-rule="evenodd" d="M624.677 512.947C625.331 509.833 626.59 506.877 628.382 504.247C628.607 503.921 628.865 503.562 629.166 503.228C630.255 501.933 631.535 500.811 632.961 499.901C633.091 499.815 633.137 499.646 633.067 499.506C632.9 499.174 632.496 499.041 632.165 499.208C632.036 499.271 631.89 499.29 631.749 499.262C631.03 499.134 628.846 498.569 628.403 496.468C627.935 494.239 628.169 490.527 628.341 488.532C628.367 488.236 628.545 487.975 628.81 487.841C629.075 487.708 629.391 487.721 629.644 487.876C631.346 488.918 634.467 490.94 635.98 492.652C637.404 494.258 636.56 496.343 636.237 497.002C636.175 497.131 636.073 497.237 635.946 497.304C635.617 497.472 635.485 497.874 635.652 498.204C635.721 498.344 635.886 498.409 636.032 498.353C637.612 497.75 639.274 497.39 640.962 497.287C641.39 497.257 641.821 497.249 642.25 497.262C645.43 497.389 648.554 498.137 651.446 499.464C651.649 499.563 651.778 499.768 651.78 499.993C651.782 500.218 651.656 500.425 651.455 500.527L625.544 513.578C625.343 513.687 625.096 513.671 624.911 513.536C624.726 513.402 624.635 513.172 624.677 512.947Z" fill="#41C8F8"/>
<path fill-rule="evenodd" clip-rule="evenodd" d="M651.617 500.887L625.705 513.937C625.371 514.106 624.97 514.071 624.67 513.847C624.37 513.623 624.222 513.249 624.288 512.881C624.953 509.714 626.233 506.708 628.056 504.034C628.305 503.671 628.572 503.321 628.856 502.985C629.95 501.684 631.231 500.553 632.659 499.631C632.576 499.54 632.443 499.517 632.334 499.573C632.126 499.676 631.891 499.709 631.664 499.667C630.93 499.537 628.499 498.92 628.004 496.566C627.522 494.291 627.753 490.549 627.934 488.519C627.972 488.087 628.231 487.705 628.619 487.51C629.007 487.315 629.467 487.334 629.837 487.56C631.577 488.623 634.721 490.665 636.262 492.407C637.858 494.205 636.896 496.514 636.575 497.193C636.473 497.403 636.305 497.573 636.097 497.677C635.989 497.734 635.929 497.853 635.95 497.973C637.542 497.375 639.215 497.017 640.913 496.912C641.388 496.881 641.842 496.886 642.231 496.894C645.465 497.023 648.642 497.783 651.583 499.133C651.918 499.299 652.131 499.641 652.132 500.015C652.133 500.39 651.923 500.732 651.588 500.901L651.617 500.887ZM625.062 513.016C625.046 513.09 625.076 513.167 625.137 513.213C625.197 513.259 625.279 513.266 625.347 513.23L651.258 500.18C651.326 500.145 651.367 500.076 651.366 500C651.365 499.924 651.32 499.856 651.252 499.824C648.405 498.522 645.329 497.791 642.201 497.673C641.822 497.66 641.402 497.668 640.951 497.696C639.303 497.795 637.68 498.147 636.138 498.739C635.801 498.866 635.422 498.719 635.259 498.399C634.996 497.872 635.207 497.232 635.732 496.965C635.786 496.937 635.831 496.893 635.859 496.839C636.122 496.264 636.926 494.354 635.658 492.926C634.182 491.261 631.113 489.271 629.412 488.233C629.274 488.154 629.106 488.149 628.964 488.221C628.822 488.292 628.725 488.43 628.706 488.588C628.528 490.572 628.3 494.224 628.759 496.4C629.152 498.27 631.178 498.777 631.784 498.891C631.843 498.901 631.904 498.892 631.958 498.866C632.484 498.601 633.126 498.813 633.391 499.339C633.553 499.66 633.446 500.052 633.144 500.247C631.751 501.133 630.502 502.228 629.441 503.493C629.17 503.81 628.916 504.141 628.679 504.484C626.912 507.068 625.669 509.974 625.019 513.037L625.062 513.016Z" fill="#242022"/>
<path fill-rule="evenodd" clip-rule="evenodd" d="M625.457 517.051L637.074 520.552L641.098 509.173L625.457 517.051Z" fill="#41C8F8"/>
<path fill-rule="evenodd" clip-rule="evenodd" d="M637.248 520.902C637.158 520.948 637.053 520.958 636.956 520.93L625.34 517.428C625.186 517.38 625.076 517.244 625.063 517.084C625.049 516.923 625.134 516.771 625.277 516.698L640.918 508.82C641.062 508.748 641.235 508.771 641.356 508.877C641.477 508.984 641.521 509.153 641.467 509.305L637.456 520.673C637.42 520.775 637.345 520.857 637.248 520.902ZM626.519 516.956L636.825 520.061L640.395 509.968L626.519 516.956Z" fill="#242022"/>
<path fill-rule="evenodd" clip-rule="evenodd" d="M641.098 509.174L652.714 512.676L656.735 501.298L641.098 509.174Z" fill="#41C8F8"/>
<path fill-rule="evenodd" clip-rule="evenodd" d="M652.889 513.026C652.799 513.072 652.694 513.082 652.597 513.054L640.987 509.548C640.834 509.501 640.724 509.366 640.709 509.206C640.695 509.045 640.78 508.891 640.925 508.818L656.569 500.939C656.713 500.867 656.886 500.89 657.007 500.996C657.128 501.102 657.172 501.271 657.119 501.423L653.107 512.792C653.071 512.897 652.991 512.982 652.889 513.026ZM642.157 509.085L652.466 512.188L656.033 502.097L642.157 509.085Z" fill="#242022"/>
</svg>
