<svg width="30" height="30" viewBox="0 0 30 30" fill="none" xmlns="http://www.w3.org/2000/svg">
<path d="M18.75 15L13.125 11.25V18.75L18.75 15Z" stroke="#221B96" stroke-width="2" stroke-linecap="round" stroke-linejoin="round"/>
<path d="M2.8125 14.9992C2.8125 18.4862 3.17275 20.5321 3.44661 21.5836C3.51982 21.8708 3.6604 22.1364 3.85671 22.3584C4.05302 22.5804 4.2994 22.7525 4.57546 22.8603C8.49853 24.3679 15 24.3265 15 24.3265C15 24.3265 21.5014 24.3679 25.4245 22.8603C25.7006 22.7525 25.9469 22.5804 26.1433 22.3584C26.3396 22.1364 26.4802 21.8708 26.5534 21.5836C26.8272 20.5321 27.1875 18.4862 27.1875 14.9992C27.1875 11.5123 26.8272 9.46636 26.5534 8.41486C26.4802 8.12768 26.3396 7.86208 26.1433 7.64006C25.947 7.41805 25.7006 7.246 25.4245 7.13818C21.5015 5.63059 15 5.67199 15 5.67199C15 5.67199 8.49861 5.63059 4.57549 7.13816C4.29944 7.24598 4.05305 7.41803 3.85674 7.64005C3.66043 7.86206 3.51984 8.12766 3.44664 8.41484C3.17277 9.46634 2.8125 11.5123 2.8125 14.9992Z" stroke="#221B96" stroke-width="2" stroke-linecap="round" stroke-linejoin="round"/>
</svg>
